<svg width="50" height="50" viewBox="0 0 50 50" fill="none" xmlns="http://www.w3.org/2000/svg">
<g id="padlock 1" clip-path="url(#clip0_202_1262)">
<g id="Group">
<g id="Group_2">
<g id="Group_3">
<path id="Vector" d="M39.1666 23.3333V14.1666C39.1666 6.35498 32.8116 0 24.9999 0C17.1882 0 10.8332 6.35498 10.8332 14.1667V23.3334C8.53584 23.3334 6.6665 25.2027 6.6665 27.5001V45.8334C6.6665 48.1308 8.53584 50.0001 10.8332 50.0001H39.1665C41.4639 50.0001 43.3332 48.1308 43.3332 45.8334V27.5C43.3332 25.2026 41.464 23.3333 39.1666 23.3333ZM12.4999 14.1667C12.4999 7.27422 18.1074 1.6667 24.9999 1.6667C31.8924 1.6667 37.4999 7.27422 37.4999 14.1667V23.3334H34.9999V14.1667C34.9999 8.65283 30.5138 4.1667 24.9999 4.1667C19.486 4.1667 14.9999 8.65283 14.9999 14.1667V23.3334H12.4999V14.1667ZM33.3332 14.1667V23.3334H16.6666V14.1667C16.6666 9.57158 20.4048 5.8334 24.9999 5.8334C29.595 5.8333 33.3332 9.57158 33.3332 14.1667ZM41.6666 45.8333C41.6666 47.2119 40.5452 48.3333 39.1666 48.3333H10.8332C9.45459 48.3333 8.3332 47.2119 8.3332 45.8333V27.5C8.3332 26.1214 9.45459 25 10.8332 25H11.6665H15.8332H34.1665H38.3332H39.1665C40.5451 25 41.6665 26.1214 41.6665 27.5V45.8333H41.6666Z" fill="#4D4D4D"/>
<path id="Vector_2" d="M25 30C22.7026 30 20.8333 31.8693 20.8333 34.1667C20.8333 35.4834 21.4611 36.7187 22.5 37.4972V40.8334C22.5 42.212 23.6213 43.3334 25 43.3334C26.3786 43.3334 27.5 42.212 27.5 40.8334V37.4972C28.5387 36.7187 29.1667 35.4834 29.1667 34.1667C29.1667 31.8693 27.2973 30 25 30ZM26.2511 36.3273C25.9927 36.4763 25.8333 36.7518 25.8333 37.05V40.8334C25.8333 41.2928 25.4593 41.6667 25 41.6667C24.5406 41.6667 24.1667 41.2928 24.1667 40.8334V37.05C24.1667 36.7518 24.0072 36.4763 23.7488 36.3273C22.9785 35.8847 22.5 35.057 22.5 34.1667C22.5 32.7881 23.6213 31.6667 25 31.6667C26.3786 31.6667 27.5 32.7881 27.5 34.1667C27.5 35.0569 27.0214 35.8846 26.2511 36.3273Z" fill="#4D4D4D"/>
</g>
</g>
</g>
</g>
<defs>
<clipPath id="clip0_202_1262">
<rect width="50" height="50" fill="white"/>
</clipPath>
</defs>
</svg>
