<svg width="50" height="50" viewBox="0 0 50 50" fill="none" xmlns="http://www.w3.org/2000/svg">
<g id="rocking-horse 1">
<path id="Vector" d="M42.1107 33.6279L42.2088 34.1556L42.7282 34.0204C44.7948 33.4824 46.966 34.5877 47.6921 36.6249L47.6925 36.6258C48.0672 37.6709 48.0116 38.7998 47.5356 39.8062C47.0582 40.8125 46.2219 41.5697 45.174 41.9431L45.1736 41.9432L40.947 43.4523C35.8254 45.2808 30.4593 46.2079 24.9988 46.2079C19.5329 46.2079 14.1676 45.2808 9.05068 43.4523L9.05059 43.4523L4.82466 41.9432L4.82457 41.9432C2.6647 41.1724 1.53364 38.7867 2.30458 36.625C3.07803 34.4643 5.46478 33.3318 7.6228 34.1049L7.62323 34.105L7.88302 34.1978L8.44662 34.3992L8.54448 33.8088L10.4171 22.5114L10.4785 22.1412L10.1401 21.9788L6.35012 20.1609C6.34984 20.1607 6.34957 20.1606 6.34929 20.1605C4.85352 19.4351 3.93123 17.9606 3.93123 16.3048C3.93123 14.7022 4.85777 13.2019 6.28596 12.4888L6.28651 12.4885L14.5797 8.33508L14.8558 8.19681V7.88802V4.85457C14.8558 4.52103 15.0125 4.20658 15.2801 4.00469C15.5466 3.8055 15.8953 3.74151 16.2136 3.83346C20.3826 5.04034 22.9113 7.35335 24.3871 9.90531C25.8703 12.4699 26.3048 15.3033 26.2264 17.5462L26.2083 18.0636H26.7261H32.2818C36.3059 18.0636 39.7548 20.9315 40.4846 24.8825L40.4847 24.8831L42.1107 33.6279ZM7.27096 18.2469L7.27312 18.2479L12.1163 20.5703L12.1164 20.5704C12.5431 20.7749 12.7824 21.2354 12.7051 21.7009L12.7051 21.7009L10.5478 34.7126L10.4795 35.1248L10.873 35.2653L11.85 35.6142C13.0749 36.0515 14.3205 36.4057 15.5706 36.7142L16.0444 36.8311L16.1728 36.3602L16.3804 35.5983C16.3805 35.598 16.3806 35.5977 16.3806 35.5975C17.4536 31.712 21.0054 29.0027 25.014 29.0027C26.8176 29.0027 28.5455 29.5331 30.0147 30.5361L30.0169 30.5376C31.4918 31.5329 32.6349 32.9413 33.3119 34.6085C33.3121 34.6089 33.3122 34.6092 33.3123 34.6096L34.019 36.3763L34.1814 36.7822L34.6054 36.6755C35.7964 36.3755 36.9812 36.0306 38.1475 35.6142L37.9794 35.1433L38.1476 35.6142L39.7815 35.0308L40.1828 34.8875L40.1049 34.4685L38.3949 25.2703C37.8521 22.3238 35.2794 20.1886 32.2818 20.1886H24.9988C24.6842 20.1886 24.385 20.0486 24.1829 19.8077C23.9815 19.5662 23.8974 19.2479 23.9535 18.9373L23.9541 18.9337C23.9906 18.723 24.3409 16.5576 23.7328 13.9948C23.1206 11.4146 21.5305 8.41897 17.6909 6.64087L16.9808 6.31203V7.09458V8.85239C16.9808 9.25472 16.7539 9.62215 16.3939 9.80309C16.3938 9.80315 16.3936 9.80321 16.3935 9.80327L7.23695 14.3896C6.51599 14.7495 6.05623 15.4988 6.05623 16.3048C6.05623 17.1367 6.52298 17.8838 7.27096 18.2469ZM31.4598 37.3359L32.0732 37.2342L31.8422 36.6569L31.3407 35.4031L31.3398 35.4008C30.8266 34.1359 29.9544 33.0594 28.8226 32.2958C27.6994 31.5292 26.3837 31.1276 25.014 31.1276C21.9532 31.1276 19.2479 33.1974 18.4301 36.1592L18.4296 36.1607L18.2748 36.7287L18.1286 37.2649L18.6772 37.3538C22.9038 38.0388 27.2342 38.0362 31.4598 37.3359ZM44.4601 39.9431L44.4612 39.9427C44.9707 39.7594 45.383 39.3884 45.6155 38.895C45.8477 38.4039 45.8736 37.8505 45.6923 37.3408L45.6921 37.3403C45.313 36.2779 44.1492 35.7359 43.0916 36.1038L43.0878 36.1052L38.8611 37.6143L38.861 37.6143C29.9595 40.7951 20.0365 40.7951 11.135 37.6143L11.1349 37.6143L6.90901 36.1052L6.90662 36.1044C6.68407 36.0262 6.45409 35.9876 6.22664 35.9876C5.39085 35.9876 4.60415 36.5058 4.30555 37.3399L4.3053 37.3406C3.92889 38.397 4.48159 39.5647 5.53859 39.943L5.53895 39.9431L9.76561 41.4522C19.5355 44.941 30.4445 44.944 40.2333 41.4522L40.2334 41.4522L44.4601 39.9431Z" fill="#4D4D4D" stroke="white"/>
</g>
</svg>
