<svg width="50" height="50" viewBox="0 0 50 50" fill="none" xmlns="http://www.w3.org/2000/svg">
<path d="M36.4864 48.6486H24.9999C24.8207 48.6486 24.6488 48.5774 24.5221 48.4507C24.3954 48.324 24.3242 48.1521 24.3242 47.9729V2.02699C24.3243 1.8986 24.3609 1.77288 24.4298 1.66456C24.4987 1.55623 24.5971 1.46978 24.7133 1.41533C24.8296 1.36089 24.959 1.34069 25.0863 1.35711C25.2137 1.37354 25.3337 1.4259 25.4323 1.50807L33.5404 8.26482C33.609 8.32195 33.6655 8.39208 33.7068 8.47117C33.7481 8.55026 33.7733 8.63675 33.781 8.72563L37.1594 47.9148C37.1674 48.0081 37.156 48.102 37.1258 48.1906C37.0957 48.2793 37.0474 48.3606 36.9841 48.4296C36.9209 48.4986 36.844 48.5537 36.7583 48.5914C36.6726 48.6291 36.58 48.6486 36.4864 48.6486ZM25.6756 47.2973H35.7499L32.4594 9.12158L25.6756 3.46955V47.2973Z" fill="#4D4D4D"/>
<path d="M39.9724 30.2635C39.8034 30.2633 39.6406 30.1997 39.5162 30.0854C39.3917 29.9711 39.3146 29.8143 39.3001 29.6459L39.1312 27.6865C39.1203 27.5104 39.1786 27.3371 39.2938 27.2035C39.4089 27.0699 39.5717 26.9867 39.7474 26.9715C39.9231 26.9563 40.0978 27.0105 40.2342 27.1223C40.3705 27.2342 40.4577 27.395 40.4771 27.5702L40.646 29.5297C40.6614 29.7082 40.6053 29.8854 40.49 30.0225C40.3747 30.1596 40.2096 30.2453 40.0312 30.2608C40.0116 30.2627 39.992 30.2636 39.9724 30.2635Z" fill="#4D4D4D"/>
<path d="M41.554 48.6487H36.4865C36.3073 48.6487 36.1354 48.5775 36.0087 48.4508C35.882 48.3241 35.8108 48.1522 35.8108 47.973C35.8108 47.7938 35.882 47.622 36.0087 47.4953C36.1354 47.3685 36.3073 47.2974 36.4865 47.2974H40.8175L40.2865 41.1115C40.2713 40.9331 40.3276 40.7559 40.443 40.6189C40.5585 40.482 40.7236 40.3964 40.902 40.3811C40.9905 40.3724 41.0799 40.3815 41.1649 40.4079C41.2499 40.4342 41.3287 40.4773 41.3968 40.5346C41.4649 40.5919 41.5208 40.6623 41.5612 40.7415C41.6017 40.8207 41.6259 40.9073 41.6324 40.996L42.227 47.9156C42.235 48.0088 42.2235 48.1027 42.1933 48.1912C42.1631 48.2797 42.1148 48.361 42.0515 48.43C41.9883 48.4989 41.9114 48.5539 41.8257 48.5915C41.7401 48.6292 41.6476 48.6487 41.554 48.6487Z" fill="#4D4D4D"/>
<path d="M40.5533 37C40.3844 36.9998 40.2217 36.9364 40.0973 36.8222C39.9729 36.708 39.8957 36.5513 39.881 36.3831L39.7053 34.3763C39.6957 34.287 39.704 34.1966 39.7297 34.1105C39.7554 34.0243 39.7981 33.9442 39.8552 33.8748C39.9122 33.8053 39.9826 33.748 40.0621 33.7061C40.1417 33.6642 40.2287 33.6386 40.3183 33.6307C40.4078 33.6229 40.4981 33.633 40.5836 33.6605C40.6692 33.688 40.7485 33.7323 40.8167 33.7908C40.885 33.8493 40.9409 33.9208 40.9812 34.0011C41.0214 34.0815 41.0453 34.1691 41.0513 34.2588L41.2269 36.2649C41.2347 36.3533 41.225 36.4424 41.1984 36.5271C41.1717 36.6117 41.1286 36.6903 41.0716 36.7583C41.0146 36.8264 40.9447 36.8825 40.866 36.9235C40.7872 36.9645 40.7012 36.9896 40.6127 36.9973C40.593 36.9992 40.5731 37.0001 40.5533 37Z" fill="#4D4D4D"/>
<path d="M39.3918 23.5744C39.2222 23.575 39.0586 23.5119 38.9334 23.3975C38.8083 23.2831 38.7307 23.1258 38.7161 22.9568L38.3215 18.3453L33.0783 13.9717C32.9406 13.8568 32.8543 13.692 32.8382 13.5134C32.8221 13.3349 32.8776 13.1573 32.9924 13.0197C33.1073 12.882 33.2721 12.7957 33.4507 12.7796C33.6292 12.7635 33.8068 12.819 33.9445 12.9339L39.4039 17.4879C39.4725 17.545 39.529 17.6152 39.5703 17.6943C39.6116 17.7733 39.6368 17.8598 39.6445 17.9487L40.0627 22.8413C40.0703 22.9297 40.0604 23.0188 40.0336 23.1034C40.0068 23.188 39.9636 23.2664 39.9064 23.3343C39.8492 23.4022 39.7793 23.4582 39.7005 23.499C39.6217 23.5399 39.5356 23.5648 39.4472 23.5724L39.3918 23.5744Z" fill="#4D4D4D"/>
<path d="M25.0001 48.6487H13.5136C13.4198 48.649 13.3269 48.6298 13.2409 48.5923C13.1549 48.5548 13.0776 48.4997 13.0141 48.4307C12.9505 48.3617 12.902 48.2801 12.8717 48.1913C12.8414 48.1025 12.8299 48.0084 12.838 47.9149L16.2163 8.7257C16.224 8.63682 16.2492 8.55033 16.2905 8.47124C16.3318 8.39215 16.3883 8.32202 16.4569 8.26489L24.565 1.50813C24.6636 1.42513 24.7839 1.37207 24.9116 1.35519C25.0394 1.33831 25.1693 1.35832 25.2861 1.41287C25.4029 1.46742 25.5016 1.55422 25.5706 1.66305C25.6397 1.77187 25.6762 1.89817 25.6758 2.02705V47.973C25.6758 48.1522 25.6046 48.3241 25.4779 48.4508C25.3512 48.5775 25.1793 48.6487 25.0001 48.6487ZM14.2501 47.2973H24.3244V3.46962L17.5407 9.12165L14.2501 47.2973Z" fill="#4D4D4D"/>
<path d="M13.5135 48.6486H7.09457C6.99705 48.6486 6.90068 48.6274 6.81209 48.5867C6.7235 48.5459 6.64479 48.4864 6.58136 48.4123C6.51793 48.3382 6.47129 48.2513 6.44465 48.1575C6.41801 48.0637 6.41199 47.9652 6.42701 47.8688L9.80538 26.2472C9.83251 26.0731 9.92658 25.9165 10.0675 25.8107L15.3108 21.8783C15.3818 21.8251 15.4626 21.7863 15.5485 21.7643C15.6345 21.7423 15.7239 21.7374 15.8118 21.75C15.8996 21.7625 15.9841 21.7922 16.0604 21.8374C16.1368 21.8826 16.2035 21.9425 16.2567 22.0134C16.31 22.0844 16.3487 22.1652 16.3707 22.2512C16.3928 22.3371 16.3976 22.4266 16.3851 22.5144C16.3725 22.6022 16.3428 22.6867 16.2976 22.7631C16.2524 22.8394 16.1926 22.9061 16.1216 22.9594L11.098 26.7269L7.88376 47.2972H13.5135C13.6927 47.2972 13.8646 47.3684 13.9913 47.4951C14.118 47.6218 14.1892 47.7937 14.1892 47.9729C14.1892 48.1521 14.118 48.324 13.9913 48.4507C13.8646 48.5774 13.6927 48.6486 13.5135 48.6486Z" fill="#4D4D4D"/>
<path d="M13.7777 45.6217C13.6315 45.6219 13.4891 45.5746 13.3721 45.4869C13.255 45.3993 13.1695 45.276 13.1285 45.1357C13.0874 44.9953 13.093 44.8454 13.1444 44.7085C13.1958 44.5716 13.2903 44.4551 13.4135 44.3764L24.6365 37.2143C24.7876 37.1179 24.9708 37.0854 25.1457 37.1241C25.3207 37.1627 25.4732 37.2693 25.5696 37.4204C25.666 37.5714 25.6985 37.7546 25.6598 37.9296C25.6212 38.1046 25.5146 38.257 25.3635 38.3535L14.1406 45.5156C14.0322 45.5848 13.9063 45.6216 13.7777 45.6217Z" fill="#4D4D4D"/>
<path d="M14.4399 37.946C14.2937 37.946 14.1515 37.8986 14.0345 37.811C13.9176 37.7233 13.8322 37.6 13.7912 37.4597C13.7503 37.3194 13.7559 37.1695 13.8073 37.0327C13.8587 36.8959 13.9532 36.7794 14.0764 36.7008L24.6365 29.9643C24.7876 29.8679 24.9708 29.8354 25.1458 29.8741C25.3207 29.9127 25.4732 30.0193 25.5696 30.1704C25.666 30.3214 25.6985 30.5046 25.6598 30.6796C25.6212 30.8546 25.5146 31.007 25.3635 31.1035L14.8027 37.8379C14.6946 37.9078 14.5687 37.9453 14.4399 37.946Z" fill="#4D4D4D"/>
<path d="M15.0954 30.277C14.9491 30.2771 14.8068 30.2298 14.6897 30.1422C14.5726 30.0546 14.4872 29.9313 14.4461 29.791C14.4051 29.6506 14.4107 29.5007 14.4621 29.3638C14.5135 29.2269 14.6079 29.1104 14.7312 29.0317L24.6366 22.7141C24.7871 22.628 24.965 22.6031 25.1334 22.6446C25.3018 22.686 25.4479 22.7906 25.5413 22.9367C25.6347 23.0828 25.6684 23.2593 25.6353 23.4295C25.6022 23.5998 25.5049 23.7508 25.3636 23.8513L15.4575 30.1689C15.3497 30.2389 15.2239 30.2764 15.0954 30.277Z" fill="#4D4D4D"/>
<path d="M15.7575 22.6148C15.6112 22.6149 15.4689 22.5676 15.3518 22.48C15.2347 22.3924 15.1493 22.2691 15.1082 22.1288C15.0672 21.9884 15.0728 21.8385 15.1242 21.7016C15.1756 21.5647 15.27 21.4482 15.3933 21.3695L24.6365 15.4709C24.7113 15.4231 24.7948 15.3906 24.8822 15.3751C24.9695 15.3596 25.0591 15.3615 25.1458 15.3806C25.2324 15.3998 25.3144 15.4358 25.3872 15.4866C25.4599 15.5375 25.5219 15.6021 25.5696 15.6769C25.6174 15.7517 25.6499 15.8352 25.6654 15.9226C25.6809 16.01 25.679 16.0995 25.6598 16.1862C25.6407 16.2728 25.6047 16.3549 25.5539 16.4276C25.503 16.5003 25.4383 16.5623 25.3635 16.61L16.1203 22.5087C16.0119 22.5779 15.886 22.6147 15.7575 22.6148Z" fill="#4D4D4D"/>
<path d="M16.4188 14.9459C16.2726 14.9461 16.1303 14.8988 16.0132 14.8112C15.8961 14.7235 15.8106 14.6003 15.7696 14.4599C15.7285 14.3196 15.7341 14.1697 15.7855 14.0328C15.8369 13.8959 15.9314 13.7793 16.0547 13.7007L24.6357 8.22769C24.7105 8.17996 24.794 8.14742 24.8814 8.13194C24.9688 8.11646 25.0583 8.11835 25.145 8.13748C25.2316 8.15662 25.3136 8.19263 25.3864 8.24347C25.4591 8.29431 25.5211 8.35898 25.5688 8.43378C25.6166 8.50858 25.6491 8.59205 25.6646 8.67942C25.6801 8.7668 25.6782 8.85636 25.6591 8.94301C25.6399 9.02966 25.6039 9.11169 25.5531 9.18442C25.5022 9.25714 25.4376 9.31915 25.3628 9.36688L16.7817 14.8399C16.6734 14.9093 16.5475 14.9461 16.4188 14.9459Z" fill="#4D4D4D"/>
</svg>
