<svg width="50" height="50" viewBox="0 0 50 50" fill="none" xmlns="http://www.w3.org/2000/svg">
<g id="shield 1">
<g id="Group">
<path id="Vector" d="M41.0748 10.3432C33.68 8.5762 25.5074 3.30429 25.4258 3.25088C25.299 3.16872 25.1512 3.125 25.0001 3.125C24.849 3.125 24.7012 3.16872 24.5744 3.25088C24.4927 3.30429 16.3266 8.57468 8.92533 10.3432C8.12175 10.5371 7.40743 10.9972 6.89857 11.6487C6.3897 12.3001 6.11624 13.1046 6.12267 13.9312L6.12345 22.6677C6.13032 22.847 7.01113 40.6868 23.7966 46.6682C24.183 46.8053 24.59 46.8753 25.0001 46.875C41.8765 42.92 44.2439 22.5052 43.8772 22.6371L43.8775 13.9312C43.8839 13.1046 43.6105 12.3001 43.1016 11.6487C42.5927 10.9972 41.8784 10.5371 41.0748 10.3432ZM25.6787 45.1958C25.2398 45.3529 24.76 45.3529 24.3211 45.1958C8.54806 39.5752 7.69128 22.7753 7.68517 22.6372V13.9312C7.67971 13.4561 7.83518 12.9931 8.12628 12.6176C8.41739 12.2421 8.82701 11.9761 9.28849 11.8629C16.055 10.2462 23.1901 5.96311 25.0001 4.83167C26.8102 5.96311 33.9452 10.2462 40.7117 11.8629C41.1732 11.9761 41.5828 12.2421 41.8739 12.6176C42.165 12.9931 42.3205 13.4561 42.315 13.9312L42.3158 22.6066C42.3089 22.7753 41.4525 39.5752 25.6787 45.1958Z" fill="#4D4D4D"/>
<path id="Vector_2" d="M36.9545 13.9458C31.5121 12.6457 25.4856 8.75855 25.4257 8.71963C25.2989 8.63747 25.1511 8.59375 25 8.59375C24.8489 8.59375 24.7011 8.63747 24.5743 8.71963C24.5144 8.75855 18.4879 12.6457 13.0451 13.9458C12.4057 14.1003 11.8373 14.4666 11.4323 14.985C11.0273 15.5035 10.8095 16.1436 10.8143 16.8015L10.8151 23.2804C10.82 23.4146 11.4792 36.7653 24.0414 41.2415C24.3491 41.3507 24.6731 41.4064 24.9996 41.4062C37.6604 38.5042 39.4607 23.1841 39.1855 23.2498L39.1857 16.8015C39.1905 16.1435 38.9726 15.5034 38.5676 14.9849C38.1625 14.4665 37.594 14.1003 36.9545 13.9458ZM25.436 39.769C25.1543 39.8697 24.8464 39.8697 24.5647 39.769C13.015 35.6537 12.397 23.7244 12.3768 23.2498V16.8015C12.3729 16.495 12.4728 16.1963 12.6601 15.9538C12.8474 15.7113 13.1112 15.5392 13.4087 15.4655C18.3239 14.2914 23.4951 11.232 25 10.2989C26.5049 11.232 31.6761 14.2914 36.591 15.4655C36.8885 15.5392 37.1524 15.7112 37.3398 15.9537C37.5272 16.1962 37.6271 16.495 37.6232 16.8015L37.624 23.2186C37.603 23.7244 36.985 35.6537 25.436 39.769Z" fill="#4D4D4D"/>
<path id="Vector_3" d="M29.2561 21.2524L23.4184 27.0904L20.7439 24.4156C20.5965 24.2739 20.3993 24.1957 20.1948 24.1978C19.9903 24.1998 19.7948 24.282 19.6502 24.4266C19.5056 24.5712 19.4235 24.7668 19.4214 24.9712C19.4194 25.1757 19.4976 25.3729 19.6393 25.5203L22.8661 28.7475C23.0131 28.893 23.2116 28.9745 23.4184 28.9745C23.6253 28.9745 23.8237 28.893 23.9708 28.7475L30.3608 22.3572C30.503 22.2098 30.5816 22.0125 30.5797 21.8077C30.5779 21.603 30.4957 21.4071 30.3509 21.2623C30.2061 21.1175 30.0103 21.0353 29.8055 21.0335C29.6008 21.0316 29.4034 21.1102 29.2561 21.2524Z" fill="#4D4D4D"/>
</g>
</g>
</svg>
