<svg width="50" height="50" viewBox="0 0 50 50" fill="none" xmlns="http://www.w3.org/2000/svg">
<g id="parking 1" clip-path="url(#clip0_202_1191)">
<g id="Group">
<g id="Group_2">
<path id="Vector" d="M21.4844 29.2099H20.9844V29.7099V37.3682H19.0547V12.6318H27.4941C31.9814 12.6318 35.6328 16.2833 35.6328 20.7703V21.0713C35.6328 25.5584 31.9814 29.2099 27.4941 29.2099H21.4844ZM20.9844 26.7803V27.2803H21.4844H27.4941C30.9182 27.2803 33.7031 24.4954 33.7031 21.0714V20.7704C33.7031 17.3464 30.9182 14.5615 27.4941 14.5615H21.4844H20.9844V15.0615V26.7803Z" fill="#4D4D4D" stroke="white"/>
</g>
</g>
<g id="Group_3">
<g id="Group_4">
<path id="Vector_2" d="M42.3242 7.67582C37.696 3.04771 31.5451 0.5 25 0.5C18.4549 0.5 12.304 3.04771 7.67583 7.67581C7.67582 7.67582 7.67582 7.67582 7.67582 7.67582M42.3242 7.67582L7.32227 7.32227L7.67582 7.67582M42.3242 7.67582C46.9522 12.304 49.5 18.455 49.5 25C49.5 31.545 46.9522 37.696 42.3242 42.3242C37.696 46.9523 31.5451 49.5 25 49.5C18.4549 49.5 12.304 46.9522 7.67592 42.3241C3.04781 37.696 0.5 31.545 0.5 25C0.5 18.455 3.04781 12.304 7.67582 7.67582M42.3242 7.67582H7.67582M9.0404 9.04029L9.04039 9.0403C4.77807 13.3027 2.42969 18.9723 2.42969 25C2.42969 31.0277 4.77807 36.6973 9.04039 40.9596C13.3027 45.2219 18.9722 47.5703 25 47.5703C31.0277 47.5703 36.6973 45.2219 40.9597 40.9597L40.6062 40.6062L40.9597 40.9597C45.2219 36.6973 47.5703 31.0277 47.5703 25C47.5703 18.9723 45.2219 13.3027 40.9597 9.0403L40.6062 9.39385L40.9597 9.04029C36.6973 4.77807 31.0277 2.42969 25 2.42969C18.9722 2.42969 13.3027 4.77807 9.0404 9.04029Z" fill="#4D4D4D" stroke="white"/>
</g>
</g>
</g>
<defs>
<clipPath id="clip0_202_1191">
<rect width="50" height="50" fill="white"/>
</clipPath>
</defs>
</svg>
