<svg width="50" height="50" viewBox="0 0 50 50" fill="none" xmlns="http://www.w3.org/2000/svg">
<g id="heating 1">
<path id="Vector" d="M21.0234 8.20303L25.9453 7.03115C24.6172 9.16396 22.8203 10.8241 22.8203 15.078C22.8203 21.8202 27.3164 21.953 27.3164 28.0624C27.3164 34.1718 22.8164 34.2616 22.8164 41.0155C22.8164 41.2227 22.8987 41.4214 23.0452 41.568C23.1917 41.7145 23.3904 41.7968 23.5976 41.7968C23.8048 41.7968 24.0035 41.7145 24.1501 41.568C24.2966 41.4214 24.3789 41.2227 24.3789 41.0155C24.3789 34.8983 28.875 34.789 28.875 28.0351C28.875 21.2811 24.3789 21.1601 24.3789 15.0507C24.3789 11.3944 25.8789 10.0429 27.2383 7.87881L28.4101 12.6991C28.4277 12.8049 28.4668 12.906 28.5251 12.9961C28.5834 13.0861 28.6596 13.1632 28.749 13.2225C28.8384 13.2818 28.9391 13.322 29.0447 13.3407C29.1503 13.3594 29.2587 13.3562 29.363 13.3312C29.4673 13.3062 29.5653 13.2599 29.651 13.1954C29.7367 13.1308 29.8082 13.0493 29.8609 12.956C29.9137 12.8626 29.9467 12.7593 29.9579 12.6526C29.969 12.546 29.9581 12.4381 29.9258 12.3358L28.3047 5.62881C28.2805 5.5273 28.2363 5.43165 28.1746 5.34752C28.1129 5.26338 28.0349 5.19246 27.9454 5.13893C27.8558 5.08541 27.7564 5.05037 27.6531 5.03589C27.5497 5.0214 27.4446 5.02776 27.3437 5.05459L20.6562 6.67178C20.5557 6.69589 20.4609 6.73956 20.3772 6.80032C20.2935 6.86107 20.2227 6.9377 20.1686 7.02584C20.1146 7.11399 20.0784 7.21191 20.0622 7.31403C20.046 7.41614 20.0501 7.52045 20.0742 7.621C20.0983 7.72154 20.142 7.81635 20.2027 7.90001C20.2635 7.98368 20.3401 8.05455 20.4283 8.1086C20.5164 8.16265 20.6143 8.1988 20.7164 8.21501C20.8186 8.23121 20.9229 8.22714 21.0234 8.20303Z" fill="#4D4D4D"/>
<path id="Vector_2" d="M7.42198 8.20301L12.3439 7.03113C11.0157 9.16395 9.21886 10.8241 9.21886 15.078C9.21886 21.8202 13.715 21.953 13.715 28.0624C13.715 34.1718 9.20323 34.2616 9.20323 41.0155C9.20323 41.2227 9.28554 41.4214 9.43206 41.5679C9.57857 41.7144 9.77728 41.7968 9.98448 41.7968C10.1917 41.7968 10.3904 41.7144 10.5369 41.5679C10.6834 41.4214 10.7657 41.2227 10.7657 41.0155C10.7657 34.8983 15.2618 34.7889 15.2618 28.035C15.2618 21.2811 10.7657 21.16 10.7657 15.0507C10.7657 11.3944 12.2657 10.0429 13.6251 7.87879L14.797 12.6991C14.8197 12.8001 14.8622 12.8955 14.9221 12.98C14.982 13.0644 15.058 13.136 15.1459 13.1908C15.2337 13.2456 15.3315 13.2823 15.4336 13.299C15.5358 13.3156 15.6402 13.3118 15.7409 13.2877C15.8416 13.2636 15.9364 13.2198 16.02 13.1588C16.1036 13.0977 16.1742 13.0207 16.2278 12.9321C16.2813 12.8436 16.3167 12.7453 16.332 12.6429C16.3472 12.5405 16.342 12.4361 16.3165 12.3358L14.6876 5.62879C14.6386 5.42802 14.5119 5.25487 14.3355 5.14724C14.1591 5.03962 13.9472 5.0063 13.7462 5.05457L7.03136 6.67176C6.93081 6.69741 6.83631 6.74261 6.75323 6.80478C6.67016 6.86695 6.60014 6.94488 6.54718 7.03411C6.44023 7.21432 6.40925 7.42964 6.46105 7.6327C6.51285 7.83575 6.64319 8.00991 6.8234 8.11687C7.00361 8.22382 7.21893 8.25481 7.42198 8.20301Z" fill="#4D4D4D"/>
<path id="Vector_3" d="M34.6367 8.20317L39.5586 7.03129C38.2304 9.16411 36.4336 10.8243 36.4336 15.0782C36.4336 21.8204 40.9258 21.9532 40.9258 28.0625C40.9258 34.1719 36.4336 34.2618 36.4336 41.0157C36.4336 41.2229 36.5159 41.4216 36.6624 41.5681C36.8089 41.7146 37.0076 41.7969 37.2148 41.7969C37.422 41.7969 37.6207 41.7146 37.7672 41.5681C37.9138 41.4216 37.9961 41.2229 37.9961 41.0157C37.9961 34.8985 42.4883 34.7891 42.4883 28.0352C42.4883 21.2813 37.9961 21.1602 37.9961 15.0508C37.9961 11.3946 39.4922 10.043 40.8515 7.87895L42.0234 12.6993C42.0461 12.8002 42.0886 12.8957 42.1485 12.9801C42.2084 13.0645 42.2845 13.1362 42.3723 13.191C42.4601 13.2457 42.5579 13.2825 42.6601 13.2991C42.7622 13.3158 42.8667 13.3119 42.9673 13.2879C43.068 13.2638 43.1629 13.22 43.2464 13.1589C43.33 13.0979 43.4006 13.0209 43.4542 12.9323C43.5077 12.8437 43.5432 12.7454 43.5584 12.643C43.5736 12.5407 43.5684 12.4363 43.5429 12.336L41.9258 5.62895C41.9015 5.52912 41.8578 5.43506 41.7971 5.35214C41.7364 5.26923 41.66 5.1991 41.5722 5.14576C41.4844 5.09242 41.3869 5.05693 41.2854 5.04131C41.1839 5.02569 41.0802 5.03025 40.9804 5.05473L34.2695 6.67192C34.169 6.69603 34.0742 6.73971 33.9905 6.80046C33.9068 6.86121 33.8359 6.93784 33.7819 7.02599C33.7279 7.11413 33.6917 7.21205 33.6755 7.31417C33.6593 7.41629 33.6634 7.5206 33.6875 7.62114C33.7116 7.72168 33.7553 7.81649 33.816 7.90016C33.8768 7.98382 33.9534 8.0547 34.0415 8.10874C34.1297 8.16279 34.2276 8.19895 34.3297 8.21515C34.4318 8.23135 34.5362 8.22728 34.6367 8.20317Z" fill="#4D4D4D"/>
<path id="Vector_4" d="M42.9688 43.3594H7.03125C6.82405 43.3594 6.62534 43.4417 6.47882 43.5882C6.33231 43.7347 6.25 43.9334 6.25 44.1406C6.25 44.3478 6.33231 44.5465 6.47882 44.6931C6.62534 44.8396 6.82405 44.9219 7.03125 44.9219H42.9688C43.1759 44.9219 43.3747 44.8396 43.5212 44.6931C43.6677 44.5465 43.75 44.3478 43.75 44.1406C43.75 43.9334 43.6677 43.7347 43.5212 43.5882C43.3747 43.4417 43.1759 43.3594 42.9688 43.3594Z" fill="#4D4D4D"/>
</g>
</svg>
