<svg width="50" height="50" viewBox="0 0 50 50" fill="none" xmlns="http://www.w3.org/2000/svg">
<g id="blocks 1">
<path id="Vector" d="M43.75 24.2188H35.9175C36.4342 23.5464 36.7158 22.723 36.7188 21.875V6.25C36.7175 5.21437 36.3056 4.22151 35.5733 3.48921C34.841 2.75691 33.8481 2.34497 32.8125 2.34375H17.1875C16.1519 2.34497 15.159 2.75691 14.4267 3.48921C13.6944 4.22151 13.2825 5.21437 13.2812 6.25V21.875C13.2842 22.723 13.5658 23.5464 14.0825 24.2188H6.25C5.21437 24.22 4.22151 24.6319 3.48921 25.3642C2.75691 26.0965 2.34497 27.0894 2.34375 28.125V43.75C2.34497 44.7856 2.75691 45.7785 3.48921 46.5108C4.22151 47.2431 5.21437 47.655 6.25 47.6562H21.875C22.4837 47.6546 23.0835 47.5102 23.6262 47.2346C24.169 46.9591 24.6395 46.56 25 46.0696C25.3605 46.56 25.831 46.9591 26.3738 47.2346C26.9165 47.5102 27.5163 47.6546 28.125 47.6562H43.75C44.7856 47.655 45.7785 47.2431 46.5108 46.5108C47.2431 45.7785 47.655 44.7856 47.6562 43.75V28.125C47.655 27.0894 47.2431 26.0965 46.5108 25.3642C45.7785 24.6319 44.7856 24.22 43.75 24.2188ZM14.8438 21.875V6.25C14.8444 5.62861 15.0916 5.03286 15.531 4.59347C15.9704 4.15408 16.5661 3.90693 17.1875 3.90625H32.8125C33.4339 3.90693 34.0296 4.15408 34.469 4.59347C34.9084 5.03286 35.1556 5.62861 35.1562 6.25V21.875C35.1556 22.4964 34.9084 23.0921 34.469 23.5315C34.0296 23.9709 33.4339 24.2181 32.8125 24.2188H17.1875C16.5661 24.2181 15.9704 23.9709 15.531 23.5315C15.0916 23.0921 14.8444 22.4964 14.8438 21.875ZM21.875 46.0938H6.25C5.62861 46.0931 5.03286 45.8459 4.59347 45.4065C4.15408 44.9671 3.90693 44.3714 3.90625 43.75V28.125C3.90693 27.5036 4.15408 26.9079 4.59347 26.4685C5.03286 26.0291 5.62861 25.7819 6.25 25.7812H21.875C22.4964 25.7819 23.0921 26.0291 23.5315 26.4685C23.9709 26.9079 24.2181 27.5036 24.2188 28.125V43.75C24.2181 44.3714 23.9709 44.9671 23.5315 45.4065C23.0921 45.8459 22.4964 46.0931 21.875 46.0938ZM46.0938 43.75C46.0931 44.3714 45.8459 44.9671 45.4065 45.4065C44.9671 45.8459 44.3714 46.0931 43.75 46.0938H28.125C27.5036 46.0931 26.9079 45.8459 26.4685 45.4065C26.0291 44.9671 25.7819 44.3714 25.7812 43.75V28.125C25.7819 27.5036 26.0291 26.9079 26.4685 26.4685C26.9079 26.0291 27.5036 25.7819 28.125 25.7812H43.75C44.3714 25.7819 44.9671 26.0291 45.4065 26.4685C45.8459 26.9079 46.0931 27.5036 46.0938 28.125V43.75Z" fill="#4D4D4D" stroke="white" stroke-width="0.5"/>
<path id="Vector_2" d="M43.75 27.3438H28.125C27.9178 27.3438 27.7191 27.4261 27.5726 27.5726C27.4261 27.7191 27.3438 27.9178 27.3438 28.125V43.75C27.3438 43.9572 27.4261 44.1559 27.5726 44.3024C27.7191 44.4489 27.9178 44.5312 28.125 44.5312H43.75C43.9572 44.5312 44.1559 44.4489 44.3024 44.3024C44.4489 44.1559 44.5312 43.9572 44.5312 43.75V28.125C44.5312 27.9178 44.4489 27.7191 44.3024 27.5726C44.1559 27.4261 43.9572 27.3438 43.75 27.3438ZM42.9688 42.9688H28.9062V28.9062H42.9688V42.9688Z" fill="#4D4D4D" stroke="white" stroke-width="0.5"/>
<path id="Vector_3" d="M21.875 27.3438H6.25C6.0428 27.3438 5.84409 27.4261 5.69757 27.5726C5.55106 27.7191 5.46875 27.9178 5.46875 28.125V43.75C5.46875 43.9572 5.55106 44.1559 5.69757 44.3024C5.84409 44.4489 6.0428 44.5312 6.25 44.5312H21.875C22.0822 44.5312 22.2809 44.4489 22.4274 44.3024C22.5739 44.1559 22.6562 43.9572 22.6562 43.75V28.125C22.6562 27.9178 22.5739 27.7191 22.4274 27.5726C22.2809 27.4261 22.0822 27.3438 21.875 27.3438ZM21.0938 42.9688H7.03125V28.9062H21.0938V42.9688Z" fill="#4D4D4D" stroke="white" stroke-width="0.5"/>
<path id="Vector_4" d="M33.5938 21.875V6.25C33.5938 6.0428 33.5114 5.84409 33.3649 5.69757C33.2184 5.55106 33.0197 5.46875 32.8125 5.46875H17.1875C16.9803 5.46875 16.7816 5.55106 16.6351 5.69757C16.4886 5.84409 16.4062 6.0428 16.4062 6.25V21.875C16.4062 22.0822 16.4886 22.2809 16.6351 22.4274C16.7816 22.5739 16.9803 22.6562 17.1875 22.6562H32.8125C33.0197 22.6562 33.2184 22.5739 33.3649 22.4274C33.5114 22.2809 33.5938 22.0822 33.5938 21.875ZM32.0312 21.0938H17.9688V7.03125H32.0312V21.0938Z" fill="#4D4D4D" stroke="white" stroke-width="0.5"/>
<path id="Vector_5" d="M21.6277 19.4907C21.725 19.5233 21.8278 19.5364 21.9302 19.5292C22.0325 19.5221 22.1325 19.4948 22.2243 19.4489C22.3161 19.4031 22.398 19.3396 22.4652 19.262C22.5324 19.1845 22.5837 19.0945 22.6161 18.9971L23.4797 16.4062H26.5201L27.3837 18.9971C27.4493 19.1937 27.5903 19.3562 27.7756 19.4488C27.961 19.5414 28.1755 19.5567 28.3721 19.4911C28.5687 19.4255 28.7312 19.2846 28.8238 19.0992C28.9164 18.9139 28.9316 18.6993 28.8661 18.5027L25.7411 9.12774C25.6892 8.97218 25.5898 8.83687 25.4567 8.74098C25.3237 8.6451 25.1639 8.59351 24.9999 8.59351C24.8359 8.59351 24.6761 8.6451 24.5431 8.74098C24.4101 8.83687 24.3106 8.97218 24.2587 9.12774L21.1337 18.5027C21.1012 18.6 21.0882 18.7028 21.0954 18.8051C21.1027 18.9075 21.13 19.0074 21.1759 19.0991C21.2218 19.1909 21.2853 19.2727 21.3628 19.3399C21.4404 19.4071 21.5304 19.4583 21.6277 19.4907ZM24.9999 11.8453L25.9993 14.8437H24.0005L24.9999 11.8453Z" fill="#4D4D4D" stroke="white" stroke-width="0.5"/>
<path id="Vector_6" d="M11.7188 41.4063H14.0625C14.6987 41.409 15.3204 41.2166 15.8439 40.8551C16.3675 40.4936 16.7676 39.9803 16.9904 39.3845C17.2133 38.7886 17.2481 38.1387 17.0903 37.5224C16.9325 36.9061 16.5895 36.3529 16.1077 35.9375C16.5895 35.5221 16.9325 34.969 17.0903 34.3527C17.2481 33.7364 17.2133 33.0865 16.9904 32.4906C16.7676 31.8947 16.3675 31.3814 15.8439 31.0199C15.3204 30.6584 14.6987 30.4661 14.0625 30.4688H11.7188C11.5115 30.4688 11.3128 30.5511 11.1663 30.6976C11.0198 30.8441 10.9375 31.0428 10.9375 31.25V40.625C10.9375 40.8322 11.0198 41.0309 11.1663 41.1775C11.3128 41.324 11.5115 41.4063 11.7188 41.4063ZM15.625 38.2813C15.6245 38.6955 15.4598 39.0927 15.1668 39.3856C14.8739 39.6785 14.4768 39.8433 14.0625 39.8438H12.5V36.7188H14.0625C14.4768 36.7193 14.8739 36.884 15.1668 37.177C15.4598 37.4699 15.6245 37.867 15.625 38.2813ZM12.5 32.0313H14.0625C14.4769 32.0313 14.8743 32.1959 15.1674 32.4889C15.4604 32.7819 15.625 33.1794 15.625 33.5938C15.625 34.0082 15.4604 34.4056 15.1674 34.6986C14.8743 34.9917 14.4769 35.1563 14.0625 35.1563H12.5V32.0313Z" fill="#4D4D4D" stroke="white" stroke-width="0.5"/>
<path id="Vector_7" d="M35.9375 41.4062C36.766 41.4054 37.5604 41.0759 38.1462 40.49C38.7321 39.9041 39.0616 39.1098 39.0625 38.2812C39.0625 38.074 38.9802 37.8753 38.8337 37.7288C38.6872 37.5823 38.4885 37.5 38.2812 37.5C38.074 37.5 37.8753 37.5823 37.7288 37.7288C37.5823 37.8753 37.5 38.074 37.5 38.2812C37.5 38.6957 37.3354 39.0931 37.0424 39.3861C36.7493 39.6791 36.3519 39.8438 35.9375 39.8438C35.5231 39.8438 35.1257 39.6791 34.8326 39.3861C34.5396 39.0931 34.375 38.6957 34.375 38.2812V33.5938C34.375 33.1793 34.5396 32.7819 34.8326 32.4889C35.1257 32.1959 35.5231 32.0312 35.9375 32.0312C36.3519 32.0312 36.7493 32.1959 37.0424 32.4889C37.3354 32.7819 37.5 33.1793 37.5 33.5938C37.5 33.801 37.5823 33.9997 37.7288 34.1462C37.8753 34.2927 38.074 34.375 38.2812 34.375C38.4885 34.375 38.6872 34.2927 38.8337 34.1462C38.9802 33.9997 39.0625 33.801 39.0625 33.5938C39.0625 32.7649 38.7333 31.9701 38.1472 31.384C37.5612 30.798 36.7663 30.4688 35.9375 30.4688C35.1087 30.4688 34.3138 30.798 33.7278 31.384C33.1417 31.9701 32.8125 32.7649 32.8125 33.5938V38.2812C32.8134 39.1098 33.1429 39.9041 33.7288 40.49C34.3146 41.0759 35.109 41.4054 35.9375 41.4062Z" fill="#4D4D4D" stroke="white" stroke-width="0.5"/>
</g>
</svg>
