<svg width="50" height="50" viewBox="0 0 50 50" fill="none" xmlns="http://www.w3.org/2000/svg">
<g id="flash 1">
<g id="Group">
<g id="Group_2">
<path id="Vector" d="M39.1005 17.1667C38.9338 16.8334 38.6838 16.6667 38.3505 16.6667H28.5172L38.2672 1.25C38.4339 1 38.4339 0.666699 38.2672 0.416699C38.1005 0.166699 37.8505 0 37.5172 0H24.1839C23.8506 0 23.6006 0.166699 23.4339 0.416699L10.9339 25.4167C10.7672 25.6667 10.7672 26 10.9339 26.25C11.1006 26.5 11.4339 26.6667 11.6839 26.6667H20.2672L10.9339 48.9167C10.7672 49.25 10.9339 49.6667 11.2672 49.9167C11.3505 50 11.5172 50 11.6839 50C11.9339 50 12.1839 49.9167 12.3506 49.75L39.0173 18.0833C39.1839 17.8333 39.2672 17.5 39.1005 17.1667ZM14.6005 44.4167L22.2672 26.0834C22.3505 25.8334 22.3505 25.5834 22.1839 25.3334C22.0172 25.1667 21.7672 25.0001 21.5172 25.0001H13.0172L24.6839 1.6667H36.0172L26.1839 17.0833C26.0172 17.3333 26.0172 17.6666 26.1839 17.9166C26.3506 18.1666 26.6006 18.3333 26.9339 18.3333H36.6006L14.6005 44.4167Z" fill="#4D4D4D"/>
</g>
</g>
</g>
</svg>
