<svg width="60" height="60" viewBox="0 0 60 60" fill="none" xmlns="http://www.w3.org/2000/svg">
<rect width="60" height="60" rx="30" fill="#EDC653"/>
<path d="M33.0499 23C34.0267 23.1906 34.9243 23.6683 35.628 24.3719C36.3317 25.0756 36.8094 25.9733 36.9999 26.95M33.0499 19C35.0792 19.2254 36.9715 20.1342 38.4162 21.577C39.8608 23.0198 40.7719 24.911 40.9999 26.94M39.9999 34.92V37.92C40.0011 38.1985 39.944 38.4742 39.8324 38.7293C39.7209 38.9845 39.5572 39.2136 39.352 39.4019C39.1468 39.5901 38.9045 39.7335 38.6407 39.8227C38.3769 39.9119 38.0973 39.9451 37.8199 39.92C34.7428 39.5856 31.7869 38.5341 29.1899 36.85C26.7738 35.3147 24.7253 33.2662 23.1899 30.85C21.4999 28.2412 20.4482 25.271 20.1199 22.18C20.0949 21.9035 20.1278 21.6248 20.2164 21.3616C20.3051 21.0985 20.4475 20.8567 20.6347 20.6516C20.8219 20.4466 21.0497 20.2827 21.3037 20.1705C21.5577 20.0583 21.8323 20.0003 22.1099 20H25.1099C25.5952 19.9952 26.0657 20.1671 26.4337 20.4835C26.8017 20.8 27.042 21.2394 27.1099 21.72C27.2366 22.6801 27.4714 23.6227 27.8099 24.53C27.9445 24.8879 27.9736 25.2769 27.8938 25.6509C27.8141 26.0248 27.6288 26.3681 27.3599 26.64L26.0899 27.91C27.5135 30.4135 29.5864 32.4864 32.0899 33.91L33.3599 32.64C33.6318 32.3711 33.9751 32.1858 34.3491 32.1061C34.723 32.0263 35.112 32.0555 35.4699 32.19C36.3772 32.5286 37.3199 32.7634 38.2799 32.89C38.7657 32.9585 39.2093 33.2032 39.5265 33.5775C39.8436 33.9518 40.0121 34.4296 39.9999 34.92Z" fill="white"/>
</svg>
