<svg width="24" height="25" viewBox="0 0 24 25" fill="none" xmlns="http://www.w3.org/2000/svg">
<path d="M12 4.30723C14.6506 4.30723 15.0121 4.30723 16.0964 4.30723C17.0602 4.30723 17.5422 4.54819 17.9036 4.66868C18.3855 4.90964 18.747 5.03012 19.1084 5.39157C19.4699 5.75301 19.7108 6.11446 19.8313 6.59639C19.9518 6.95783 20.0723 7.43976 20.1928 8.40362C20.1928 9.48795 20.1928 9.72892 20.1928 12.5C20.1928 15.2711 20.1928 15.5121 20.1928 16.5964C20.1928 17.5602 19.9518 18.0422 19.8313 18.4036C19.5904 18.8855 19.4699 19.247 19.1084 19.6084C18.747 19.9699 18.3855 20.2108 17.9036 20.3313C17.5422 20.4518 17.0602 20.5723 16.0964 20.6928C15.0121 20.6928 14.7711 20.6928 12 20.6928C9.22892 20.6928 8.98795 20.6928 7.90362 20.6928C6.93976 20.6928 6.45783 20.4518 6.09639 20.3313C5.61446 20.0904 5.25301 19.9699 4.89157 19.6084C4.53012 19.247 4.28916 18.8855 4.16868 18.4036C4.04819 18.0422 3.92771 17.5602 3.80723 16.5964C3.80723 15.5121 3.80723 15.2711 3.80723 12.5C3.80723 9.72892 3.80723 9.48795 3.80723 8.40362C3.80723 7.43976 4.04819 6.95783 4.16868 6.59639C4.40964 6.11446 4.53012 5.75301 4.89157 5.39157C5.25301 5.03012 5.61446 4.78916 6.09639 4.66868C6.45783 4.54819 6.93976 4.42771 7.90362 4.30723C8.98795 4.30723 9.3494 4.30723 12 4.30723ZM12 2.5C9.22892 2.5 8.98795 2.5 7.90362 2.5C6.81928 2.5 6.09639 2.74096 5.49398 2.98193C4.89157 3.22289 4.28916 3.58434 3.68675 4.18675C3.08434 4.78916 2.84337 5.27109 2.48193 5.99398C2.24096 6.59639 2.12048 7.31928 2 8.40362C2 9.48795 2 9.8494 2 12.5C2 15.2711 2 15.5121 2 16.5964C2 17.6807 2.24096 18.4036 2.48193 19.006C2.72289 19.6084 3.08434 20.2108 3.68675 20.8133C4.28916 21.4157 4.77109 21.6566 5.49398 22.0181C6.09639 22.259 6.81928 22.3795 7.90362 22.5C8.98795 22.5 9.3494 22.5 12 22.5C14.6506 22.5 15.0121 22.5 16.0964 22.5C17.1807 22.5 17.9036 22.259 18.506 22.0181C19.1084 21.7771 19.7108 21.4157 20.3133 20.8133C20.9157 20.2108 21.1566 19.7289 21.5181 19.006C21.759 18.4036 21.8795 17.6807 22 16.5964C22 15.5121 22 15.1506 22 12.5C22 9.8494 22 9.48795 22 8.40362C22 7.31928 21.759 6.59639 21.5181 5.99398C21.2771 5.39157 20.9157 4.78916 20.3133 4.18675C19.7108 3.58434 19.2289 3.34337 18.506 2.98193C17.9036 2.74096 17.1807 2.62048 16.0964 2.5C15.0121 2.5 14.7711 2.5 12 2.5Z" fill="#4D4D4D"/>
<path d="M12 7.31928C9.10843 7.31928 6.81928 9.60843 6.81928 12.5C6.81928 15.3916 9.10843 17.6807 12 17.6807C14.8916 17.6807 17.1807 15.3916 17.1807 12.5C17.1807 9.60843 14.8916 7.31928 12 7.31928ZM12 15.8735C10.1928 15.8735 8.62651 14.4277 8.62651 12.5C8.62651 10.6928 10.0723 9.12651 12 9.12651C13.8072 9.12651 15.3735 10.5723 15.3735 12.5C15.3735 14.3072 13.8072 15.8735 12 15.8735Z" fill="#4D4D4D"/>
<path d="M17.3012 8.40362C17.9666 8.40362 18.506 7.8642 18.506 7.1988C18.506 6.53339 17.9666 5.99398 17.3012 5.99398C16.6358 5.99398 16.0964 6.53339 16.0964 7.1988C16.0964 7.8642 16.6358 8.40362 17.3012 8.40362Z" fill="#4D4D4D"/>
</svg>
