<svg width="307" height="108" viewBox="0 0 307 108" fill="none" xmlns="http://www.w3.org/2000/svg">
<path d="M38.6705 19.9804C41.6506 18.2676 43.143 15.1721 43.143 10.7301C43.143 9.41522 42.6141 8.08578 41.554 6.71995C40.5107 5.35655 38.5884 4.67242 35.7895 4.67242C32.9906 4.67242 30.7712 5.43661 29.1146 6.93587C27.4579 8.44968 26.6465 10.4293 26.6465 12.8577C26.6465 15.3031 26.9605 17.2511 27.6077 18.714C28.7668 21.4093 30.8195 24.039 33.7199 26.6179L37.7939 30.3102C41.4212 33.5707 43.8892 36.266 45.1812 38.413C47.7314 42.7215 49.0065 47.115 49.0065 51.5739C49.0065 59.8586 46.1569 66.2487 40.46 70.7731C35.3258 74.8997 28.8514 76.9618 21.0656 76.9618C11.4275 76.9618 4.96754 73.8517 1.70495 67.646C0.562682 65.4821 0 62.9372 0 60.043C0 54.8199 1.49002 50.7418 4.47248 47.8136C7.43803 44.8855 10.7827 43.4226 14.4583 43.4226C18.1507 43.4226 20.7854 44.5531 22.3745 46.7826C22.9879 47.6317 23.3187 48.7137 23.3839 50.0092C18.3149 50.0092 14.7891 51.6734 12.8185 55.0334C12.1061 56.2318 11.7415 57.5782 11.7415 59.0751C11.7415 61.9037 12.5698 64.2497 14.2434 66.1468C15.9169 68.0269 18.3512 68.9755 21.5461 68.9755C24.7435 68.9755 27.4265 67.811 29.5783 65.4991C31.7324 63.2041 32.807 60.2759 32.807 56.7316C32.807 53.1872 32.2927 50.276 31.3001 47.981C30.2907 45.7006 29.0301 43.5561 27.5086 41.5765C25.9848 39.5969 24.362 37.6997 22.6063 35.9021C20.8675 34.0874 19.2278 32.2583 17.704 30.4121C14.1926 26.1205 12.4201 21.943 12.4201 17.8843C12.4201 12.7606 14.6225 8.48364 19.0443 5.08969C23.466 1.69575 28.8972 -0.00244141 35.3741 -0.00244141C43.3579 -0.00244141 48.4076 2.42597 50.511 7.30219C51.0906 8.61707 51.3876 10.4463 51.3876 12.8431C51.3876 15.223 50.6583 17.3676 49.2021 19.2477C47.7435 21.1279 45.9226 22.0764 43.7371 22.0764C41.5516 22.0764 39.8611 21.3777 38.6681 19.9804H38.6705ZM134.022 29.6309C130.876 29.6309 129.318 27.7847 129.318 24.073C129.318 22.5762 129.832 21.4287 130.892 20.5966C131.936 19.7645 133.426 19.3496 135.348 19.3496C137.285 19.3496 138.809 20.2157 139.936 21.9624C141.079 23.6921 141.641 25.9895 141.641 28.8498C141.641 33.0419 139.041 38.3499 133.824 44.7375C132.052 46.95 129.931 49.3784 127.466 52.0082L128.342 56.9839L128.922 59.946C129.733 63.8567 131.489 65.8023 134.206 65.8023C136.128 65.8023 137.898 64.9702 139.555 63.3229C141.195 61.6587 142.405 59.5457 143.148 56.9839H147.321C143.049 69.2957 136.225 75.4504 126.835 75.4504C123.706 75.4504 121.271 74.4024 119.564 72.2894C117.842 70.1764 116.434 66.7824 115.34 62.0905C108.286 71.0085 100.483 75.4504 91.9563 75.4504C89.2081 75.4504 86.7714 74.6523 84.6535 73.039C82.5332 71.4257 81.1929 69.1138 80.6447 66.1007C76.5055 72.3403 71.4872 75.4504 65.573 75.4504C59.6781 75.4504 55.6862 72.6048 53.6166 66.9158C52.8704 64.8683 52.5082 62.5394 52.5082 59.929C52.5082 57.3162 52.74 54.7059 53.1868 52.0761C53.6335 49.4633 54.329 46.853 55.2733 44.2572C57.3429 38.5343 60.3084 33.8085 64.1506 30.0822C67.9928 26.3389 72.6464 24.4757 78.08 24.4757C80.9297 24.4757 82.9824 24.9415 84.2406 25.907C85.4987 26.8726 86.129 28.071 86.129 29.5339V30.2665L87.2061 24.9585H101.515L94.3761 58.881C94.1611 59.7616 94.0452 60.7102 94.0452 61.7267C94.0452 62.7577 94.3423 63.6893 94.9388 64.5384C95.5353 65.3875 96.5785 65.8023 98.0685 65.8023C100.752 65.8023 103.567 64.9047 106.531 63.0901C109.496 61.2924 112.063 59.0629 114.215 56.4016L108.45 24.9585H122.479L126.355 46.5036C132.665 39.7497 135.812 34.4586 135.812 30.6644C135.812 30.1646 135.778 29.7668 135.713 29.449C135.068 29.5654 134.503 29.6309 134.022 29.6309ZM85.2162 34.4562C85.2162 33.84 84.9192 33.0588 84.3541 32.0933C83.7914 31.1447 82.5815 30.662 80.7437 30.662C78.9059 30.662 77.0996 31.6445 75.3608 33.6241C71.154 38.4154 68.5217 45.2712 67.4446 54.2037C67.278 55.5671 67.2128 57.0154 67.2128 58.5462C67.2128 61.4913 67.8262 63.5534 69.0505 64.7349C69.763 65.4505 70.6565 65.7999 71.7166 65.7999C73.6872 65.7999 75.4936 65.0187 77.0996 63.437C78.7224 61.8552 79.8333 59.7107 80.4443 56.9814L85.2138 34.4538L85.2162 34.4562ZM198.851 36.9525C194.843 41.1786 188.965 43.9394 181.247 45.2373C180.469 54.3371 177.868 61.6078 173.429 67.0662C168.991 72.5223 163.692 75.2515 157.515 75.2515C149.879 75.2515 144.962 72.4228 142.76 66.7824C141.999 64.7858 141.6 62.6073 141.6 60.1934C141.6 57.7966 141.798 55.3512 142.214 52.8573C142.612 50.3779 143.257 47.8161 144.119 45.1863C146.107 39.2305 148.956 34.4053 152.714 30.7129C157.186 26.2879 162.552 24.0754 168.829 24.0754C177.325 24.0754 181.582 29.4005 181.582 40.0141V40.1136C181.913 40.1791 182.459 40.213 183.239 40.213C185.011 40.213 187.296 39.6478 190.095 38.5003C192.894 37.3698 195.526 35.9385 197.977 34.2233L198.854 36.9525H198.851ZM172.999 45.5211C171.21 45.0723 170.316 43.59 170.316 41.0961C170.316 38.5828 171.36 36.87 173.429 35.9215C173.297 33.8085 172.966 32.3116 172.437 31.4456C171.908 30.5649 170.862 30.1137 169.307 30.1137C166.259 30.1137 163.361 33.4907 160.579 40.23C157.797 46.984 156.406 52.9737 156.406 58.1993C156.406 61.4113 156.689 63.4564 157.269 64.3225C157.848 65.1716 158.478 65.7198 159.123 65.9527C159.768 66.1856 160.63 66.2851 161.741 66.2851C164.011 66.2851 166.245 64.2885 168.481 60.2953C170.717 56.3022 172.224 51.3774 173.002 45.5211H172.999ZM199.885 62.4908C199.885 64.7033 201.01 65.8023 203.28 65.8023C206.345 65.8023 209.277 63.7232 212.059 59.5627C215.819 54.0048 218.417 47.0519 219.876 38.6992C220.258 36.3533 220.456 34.2742 220.456 32.4596C220.289 32.8259 219.825 33.0588 219.048 33.1923L218.021 33.3912C217.739 33.4252 217.492 33.4421 217.292 33.4421C216.133 33.4421 215.239 32.8769 214.626 31.7609C214.012 30.6304 213.715 29.415 213.715 28.0686C213.715 26.7367 214.213 25.5553 215.205 24.5242C216.215 23.4762 217.541 22.9595 219.197 22.9595C221.815 22.9595 223.619 23.7916 224.629 25.4728C225.621 27.137 226.136 29.25 226.136 31.8119C226.136 34.3567 225.904 37.2364 225.457 40.429C224.993 43.641 224.281 46.8505 223.32 50.1111C221.151 57.4157 217.92 63.4709 213.631 68.2623C209.342 73.0536 204.075 75.4504 197.799 75.4504C194.038 75.4504 191.075 74.5019 188.887 72.5732C186.702 70.6591 185.608 67.6994 185.608 63.7063C185.608 62.042 185.775 60.4457 186.105 58.881L193.227 24.9585H207.553L200.414 58.881C200.049 60.4773 199.885 61.6757 199.885 62.4908ZM283.908 56.9839C279.701 69.2957 273.06 75.4504 263.968 75.4504C258.121 75.4504 254.859 72.4058 254.214 66.2826C249.891 72.4058 244.825 75.4504 239.06 75.4504C233.281 75.4504 229.355 72.6048 227.285 66.9158C226.539 64.8683 226.177 62.5394 226.177 59.929C226.177 57.3162 226.408 54.7059 226.855 52.0761C227.302 49.4633 227.997 46.853 228.942 44.2572C231.011 38.5343 233.977 33.8085 237.819 30.0822C241.661 26.3389 246.315 24.4757 251.748 24.4757C254.598 24.4757 256.651 24.9415 257.909 25.907C259.167 26.8726 259.797 28.071 259.797 29.5339V30.2665L260.875 24.9585H275.183L268.044 58.881C267.762 60.0115 267.615 61.0935 267.615 62.093C267.615 64.9556 268.972 66.3845 271.689 66.3845C275.217 66.3845 277.9 63.2574 279.738 56.9839H283.911H283.908ZM258.885 34.4562C258.885 33.84 258.588 33.0588 258.022 32.0933C257.46 31.1447 256.25 30.662 254.412 30.662C252.574 30.662 250.768 31.6445 249.029 33.6241C244.822 38.4154 242.19 45.2712 241.113 54.2037C240.946 55.5671 240.881 57.0154 240.881 58.5462C240.881 61.4913 241.495 63.5534 242.719 64.7349C243.431 65.4505 244.325 65.7999 245.385 65.7999C247.356 65.7999 249.162 65.0187 250.768 63.437C252.391 61.8552 253.502 59.7107 254.113 56.9814L258.882 34.4538L258.885 34.4562ZM285.954 28.9492H282.657L283.469 24.9561H286.731L289.728 11.1644L304.435 9.16777C304.435 9.16777 303.31 14.4249 301.04 24.9561H307.002L306.225 28.9492H300.262L293.904 58.8785C293.59 60.1425 293.423 61.3239 293.423 62.389C293.423 63.454 293.655 64.3346 294.119 65.0017C294.599 65.6665 295.444 65.9988 296.669 65.9988C297.91 65.9988 298.837 65.8993 299.485 65.7004C297.579 71.2244 294.964 74.3854 291.634 75.1666C290.723 75.3485 289.827 75.4504 288.951 75.4504C285.439 75.4504 282.889 74.3684 281.332 72.2069C279.791 70.0429 279.013 67.7479 279.013 65.2856C279.013 62.8402 279.211 60.6932 279.593 58.881L285.951 28.9516L285.954 28.9492Z" fill="#EDC653"/>
<path d="M47.2507 95.1786H57.5988V97.6021H53.7566V107.748H51.0929V97.6021H47.2507V95.1786ZM68.2028 95.1786H70.8665V103.024C70.8665 103.742 70.7651 104.39 70.5622 104.963C70.3593 105.538 70.0865 106.011 69.7411 106.382C69.3958 106.753 68.9852 107.063 68.5071 107.316C68.0313 107.568 67.5339 107.743 67.0146 107.845C66.4954 107.947 65.9521 107.997 65.3797 107.997C64.8074 107.997 64.2616 107.947 63.7448 107.845C63.2256 107.743 62.7281 107.566 62.2524 107.316C61.7766 107.063 61.3637 106.753 61.0183 106.382C60.673 106.011 60.3977 105.538 60.1973 104.963C59.9944 104.388 59.893 103.742 59.893 103.024V95.1786H62.5736V102.881C62.5736 104.676 63.5082 105.574 65.3797 105.574C67.2634 105.574 68.2028 104.676 68.2028 102.881V95.1786ZM76.9449 107.748H74.2643V95.1786H79.413C80.0674 95.1786 80.6736 95.2441 81.2266 95.3751C81.7796 95.5061 82.3061 95.722 82.7987 96.0204C83.2938 96.3188 83.6802 96.7458 83.9603 97.2965C84.2405 97.8471 84.3805 98.5046 84.3805 99.2712C84.3805 101.176 83.4701 102.42 81.6468 103.005L85.3827 107.745H82.2916L78.9131 103.347H76.9473V107.745L76.9449 107.748ZM76.9449 97.5488V101.103H79.5361C80.1447 101.103 80.647 100.957 81.0455 100.664C81.444 100.37 81.6444 99.9238 81.6444 99.327C81.6444 98.7156 81.4488 98.2668 81.0551 97.9806C80.6615 97.6943 80.1544 97.5488 79.5361 97.5488H76.9449ZM89.208 107.748H86.4381L91.5505 95.1786H94.446L99.5391 107.748H96.7692L95.8588 105.394H90.1402L89.2104 107.748H89.208ZM92.7121 98.6623L90.9782 103.17H95.0184L93.2675 98.6623C93.1492 98.3275 93.0598 97.9976 92.9995 97.6749C92.927 98.0461 92.8328 98.376 92.7145 98.6623H92.7121ZM104.458 107.748H101.778V95.1786H106.926C107.581 95.1786 108.187 95.2441 108.74 95.3751C109.293 95.5061 109.82 95.722 110.312 96.0204C110.807 96.3188 111.194 96.7458 111.474 97.2965C111.754 97.8471 111.894 98.5046 111.894 99.2712C111.894 101.176 110.984 102.42 109.16 103.005L112.896 107.745H109.805L106.427 103.347H104.461V107.745L104.458 107.748ZM104.458 97.5488V101.103H107.05C107.658 101.103 108.16 100.957 108.559 100.664C108.957 100.37 109.158 99.9238 109.158 99.327C109.158 98.7156 108.962 98.2668 108.569 97.9806C108.175 97.6943 107.668 97.5488 107.05 97.5488H104.458ZM119.815 95.1786H125.821V103.958C125.821 105.346 125.403 106.365 124.57 107.01C123.737 107.655 122.665 107.98 121.353 107.98C120.139 107.98 119.059 107.765 118.117 107.335V104.822C118.856 105.278 119.721 105.504 120.709 105.504C122.329 105.504 123.14 104.887 123.14 103.655V97.6045H119.815V95.181V95.1786ZM128.977 103.924C128.697 103.145 128.557 102.326 128.557 101.464C128.557 100.603 128.697 99.7831 128.977 99.0043C129.257 98.2256 129.668 97.5318 130.211 96.9204C130.755 96.3091 131.453 95.8239 132.312 95.4648C133.17 95.1058 134.136 94.9263 135.208 94.9263C136.28 94.9263 137.246 95.1058 138.103 95.4648C138.961 95.8239 139.661 96.3091 140.204 96.9204C140.748 97.5318 141.158 98.2256 141.438 99.0043C141.719 99.7831 141.859 100.603 141.859 101.464C141.859 102.326 141.719 103.145 141.438 103.924C141.158 104.703 140.748 105.397 140.204 106.008C139.663 106.619 138.963 107.105 138.103 107.464C137.246 107.823 136.28 108.002 135.208 108.002C134.136 108.002 133.17 107.823 132.312 107.464C131.455 107.105 130.755 106.619 130.211 106.008C129.668 105.397 129.257 104.703 128.977 103.924ZM138.084 104.356C138.763 103.589 139.103 102.626 139.103 101.464C139.103 100.302 138.763 99.3391 138.084 98.5725C137.405 97.8059 136.447 97.4226 135.205 97.4226C133.955 97.4226 132.989 97.8059 132.31 98.5725C131.631 99.3391 131.291 100.302 131.291 101.464C131.291 102.626 131.631 103.589 132.31 104.356C132.989 105.123 133.955 105.506 135.205 105.506C136.444 105.506 137.403 105.123 138.084 104.356ZM149.99 107.75H147.326V103.296L142.429 95.181H145.45L148.649 100.819L151.849 95.181H154.87L149.99 103.296V107.75ZM171.406 95.181H173.89V107.75H171.21V100.011L167.904 105.057H166.349L163.043 99.9941V107.75H160.362V95.181H162.847L167.136 101.717L171.408 95.181H171.406ZM178.897 107.75H176.127L181.239 95.181H184.135L189.228 107.75H186.458L185.547 105.397H179.829L178.899 107.75H178.897ZM182.401 98.6647L180.667 103.172H184.707L182.956 98.6647C182.838 98.3299 182.749 98 182.688 97.6773C182.616 98.0485 182.522 98.3784 182.403 98.6647H182.401ZM192.073 95.181H198.079V103.961C198.079 105.348 197.661 106.367 196.828 107.013C195.994 107.658 194.922 107.983 193.611 107.983C192.396 107.983 191.317 107.767 190.375 107.338V104.824C191.114 105.28 191.978 105.506 192.966 105.506C194.587 105.506 195.398 104.89 195.398 103.657V97.607H192.073V95.1834V95.181ZM212.559 95.181H215.044V107.75H212.363V100.011L209.057 105.057H207.502L204.196 99.9941V107.75H201.515V95.181H204L208.289 101.717L212.561 95.181H212.559ZM226.754 95.181H229.417V103.027C229.417 103.745 229.316 104.392 229.113 104.965C228.91 105.54 228.637 106.013 228.292 106.384C227.947 106.755 227.536 107.066 227.058 107.318C226.582 107.57 226.085 107.745 225.566 107.847C225.046 107.949 224.503 108 223.931 108C223.358 108 222.812 107.949 222.296 107.847C221.776 107.745 221.279 107.568 220.803 107.318C220.327 107.066 219.915 106.755 219.569 106.384C219.224 106.013 218.949 105.54 218.748 104.965C218.545 104.39 218.444 103.745 218.444 103.027V95.181H221.124V102.883C221.124 104.679 222.059 105.576 223.931 105.576C225.814 105.576 226.754 104.679 226.754 102.883V95.181ZM233.834 107.75H231.064L236.177 95.181H239.072L244.165 107.75H241.395L240.485 105.397H234.766L233.837 107.75H233.834ZM237.338 98.6647L235.604 103.172H239.645L237.894 98.6647C237.775 98.3299 237.686 98 237.626 97.6773C237.553 98.0485 237.459 98.3784 237.341 98.6647H237.338ZM245.581 98.5022C245.581 97.3401 246.015 96.4546 246.885 95.8457C247.754 95.2344 248.846 94.9311 250.154 94.9311C251.727 94.9311 253.079 95.2538 254.212 95.9015V98.4148C253.151 97.6482 251.864 97.277 250.35 97.3013C248.99 97.3256 248.312 97.7137 248.312 98.4682C248.312 98.803 248.481 99.0965 248.821 99.3488C249.162 99.6011 249.585 99.8001 250.092 99.9505C250.599 100.101 251.147 100.293 251.736 100.525C252.326 100.758 252.874 101.011 253.381 101.28C253.888 101.549 254.311 101.947 254.651 102.473C254.992 103 255.161 103.611 255.161 104.305C255.161 104.987 255.033 105.574 254.777 106.064C254.521 106.554 254.161 106.937 253.695 107.214C253.231 107.488 252.717 107.689 252.156 107.816C251.596 107.942 250.971 108.005 250.28 108.005C248.541 108.005 246.998 107.629 245.651 106.874V104.308C246.986 105.193 248.462 105.637 250.084 105.637C251.644 105.637 252.427 105.237 252.427 104.434C252.427 104.075 252.258 103.759 251.917 103.49C251.577 103.221 251.154 103.005 250.65 102.845C250.142 102.682 249.594 102.486 249.005 102.253C248.416 102.02 247.868 101.768 247.36 101.498C246.853 101.229 246.431 100.836 246.09 100.322C245.75 99.8073 245.581 99.2033 245.581 98.507V98.5022ZM257.81 95.181H260.49V107.75H257.81V95.181Z" fill="white"/>
</svg>
