<?xml version="1.0" encoding="UTF-8"?>
<!DOCTYPE svg PUBLIC "-//W3C//DTD SVG 1.1//EN" "http://www.w3.org/Graphics/SVG/1.1/DTD/svg11.dtd">
<!-- Creator: CorelDRAW -->
<svg xmlns="http://www.w3.org/2000/svg" xml:space="preserve" width="307" height="108" version="1.1" style="shape-rendering:geometricPrecision; text-rendering:geometricPrecision; image-rendering:optimizeQuality; fill-rule:evenodd; clip-rule:evenodd"
viewBox="0 0 1271.25 445.18"
 xmlns:xlink="http://www.w3.org/1999/xlink"
 xmlns:xodm="http://www.corel.com/coreldraw/odm/2003">
 <defs>
  <style type="text/css">
   <![CDATA[
    .fil1 {fill:#333333;fill-rule:nonzero}
    .fil0 {fill:#EDC653;fill-rule:nonzero}
   ]]>
  </style>
 </defs>
 <g id="Слой_x0020_1">
  <metadata id="CorelCorpID_0Corel-Layer"/>
  <path class="fil0" d="M160.13 82.36c12.34,-7.06 18.52,-19.82 18.52,-38.13 0,-5.42 -2.19,-10.9 -6.58,-16.53 -4.32,-5.62 -12.28,-8.44 -23.87,-8.44 -11.59,0 -20.78,3.15 -27.64,9.33 -6.86,6.24 -10.22,14.4 -10.22,24.41 0,10.08 1.3,18.11 3.98,24.14 4.8,11.11 13.3,21.95 25.31,32.58l16.87 15.22c15.02,13.44 25.24,24.55 30.59,33.4 10.56,17.76 15.84,35.87 15.84,54.25 0,34.15 -11.8,60.49 -35.39,79.14 -21.26,17.01 -48.07,25.51 -80.31,25.51 -39.91,0 -66.66,-12.82 -80.17,-38.4 -4.73,-8.92 -7.06,-19.41 -7.06,-31.34 0,-21.53 6.17,-38.34 18.52,-50.41 12.28,-12.07 26.13,-18.1 41.35,-18.1 15.29,0 26.2,4.66 32.78,13.85 2.54,3.5 3.91,7.96 4.18,13.3 -20.99,0 -35.59,6.86 -43.75,20.71 -2.95,4.94 -4.46,10.49 -4.46,16.66 0,11.66 3.43,21.33 10.36,29.15 6.93,7.75 17.01,11.66 30.24,11.66 13.24,0 24.35,-4.8 33.26,-14.33 8.92,-9.46 13.37,-21.53 13.37,-36.14 0,-14.61 -2.13,-26.61 -6.24,-36.07 -4.18,-9.4 -9.4,-18.24 -15.7,-26.4 -6.31,-8.16 -13.03,-15.98 -20.3,-23.39 -7.2,-7.48 -13.99,-15.02 -20.3,-22.63 -14.54,-17.69 -21.88,-34.91 -21.88,-51.64 0,-21.12 9.12,-38.75 27.43,-52.74 18.31,-13.99 40.8,-20.99 67.62,-20.99 33.06,0 53.97,10.01 62.68,30.11 2.4,5.42 3.63,12.96 3.63,22.84 0,9.81 -3.02,18.65 -9.05,26.4 -6.04,7.75 -13.58,11.66 -22.63,11.66 -9.05,0 -16.05,-2.88 -20.99,-8.64zm394.84 39.78c-13.03,0 -19.48,-7.61 -19.48,-22.91 0,-6.17 2.13,-10.9 6.52,-14.33 4.32,-3.43 10.49,-5.14 18.45,-5.14 8.02,0 14.33,3.57 19,10.77 4.73,7.13 7.06,16.6 7.06,28.39 0,17.28 -10.77,39.16 -32.37,65.49 -7.34,9.12 -16.12,19.13 -26.33,29.97l3.63 20.51 2.4 12.21c3.36,16.12 10.63,24.14 21.88,24.14 7.96,0 15.29,-3.43 22.15,-10.22 6.79,-6.86 11.8,-15.57 14.88,-26.13l17.28 0c-17.69,50.75 -45.95,76.12 -84.83,76.12 -12.96,0 -23.04,-4.32 -30.11,-13.03 -7.13,-8.71 -12.96,-22.7 -17.49,-42.04 -29.21,36.76 -61.52,55.07 -96.83,55.07 -11.38,0 -21.47,-3.29 -30.24,-9.94 -8.78,-6.65 -14.33,-16.18 -16.6,-28.6 -17.14,25.72 -37.92,38.54 -62.41,38.54 -24.41,0 -40.94,-11.73 -49.51,-35.18 -3.09,-8.44 -4.59,-18.04 -4.59,-28.8 0,-10.77 0.96,-21.53 2.81,-32.37 1.85,-10.77 4.73,-21.53 8.64,-32.23 8.57,-23.59 20.85,-43.07 36.76,-58.43 15.91,-15.43 35.18,-23.11 57.68,-23.11 11.8,0 20.3,1.92 25.51,5.9 5.21,3.98 7.82,8.92 7.82,14.95l0 3.02 4.46 -21.88 59.25 0 -29.56 139.83c-0.89,3.63 -1.37,7.54 -1.37,11.73 0,4.25 1.23,8.09 3.7,11.59 2.47,3.5 6.79,5.21 12.96,5.21 11.11,0 22.77,-3.7 35.04,-11.18 12.28,-7.41 22.91,-16.6 31.82,-27.57l-23.87 -129.61 58.09 0 16.05 88.81c26.13,-27.84 39.16,-49.65 39.16,-65.29 0,-2.06 -0.14,-3.7 -0.41,-5.01 -2.67,0.48 -5.01,0.75 -7,0.75zm-202.1 19.89c0,-2.54 -1.23,-5.76 -3.57,-9.74 -2.33,-3.91 -7.34,-5.9 -14.95,-5.9 -7.61,0 -15.09,4.05 -22.29,12.21 -17.42,19.75 -28.32,48.01 -32.78,84.83 -0.69,5.62 -0.96,11.59 -0.96,17.9 0,12.14 2.54,20.64 7.61,25.51 2.95,2.95 6.65,4.39 11.04,4.39 8.16,0 15.64,-3.22 22.29,-9.74 6.72,-6.52 11.32,-15.36 13.85,-26.61l19.75 -92.86zm470.55 10.29c-16.6,17.42 -40.94,28.8 -72.9,34.15 -3.22,37.51 -13.99,67.48 -32.37,89.98 -18.38,22.49 -40.32,33.74 -65.9,33.74 -31.62,0 -51.98,-11.66 -61.1,-34.91 -3.15,-8.23 -4.8,-17.21 -4.8,-27.16 0,-9.88 0.82,-19.96 2.54,-30.24 1.65,-10.22 4.32,-20.78 7.89,-31.62 8.23,-24.55 20.03,-44.44 35.59,-59.66 18.52,-18.24 40.74,-27.36 66.73,-27.36 35.18,0 52.81,21.95 52.81,65.7l0 0.41c1.37,0.27 3.63,0.41 6.86,0.41 7.34,0 16.8,-2.33 28.39,-7.06 11.59,-4.66 22.49,-10.56 32.64,-17.63l3.63 11.25zm-107.05 35.32c-7.41,-1.85 -11.11,-7.96 -11.11,-18.24 0,-10.36 4.32,-17.42 12.89,-21.33 -0.55,-8.71 -1.92,-14.88 -4.11,-18.45 -2.19,-3.63 -6.52,-5.49 -12.96,-5.49 -12.62,0 -24.62,13.92 -36.14,41.7 -11.52,27.84 -17.28,52.53 -17.28,74.07 0,13.24 1.17,21.67 3.57,25.24 2.4,3.5 5.01,5.76 7.68,6.72 2.67,0.96 6.24,1.37 10.84,1.37 9.4,0 18.65,-8.23 27.91,-24.69 9.26,-16.46 15.5,-36.76 18.72,-60.9zm111.33 69.95c0,9.12 4.66,13.65 14.06,13.65 12.69,0 24.83,-8.57 36.35,-25.72 15.57,-22.91 26.33,-51.57 32.37,-86 1.58,-9.67 2.4,-18.24 2.4,-25.72 -0.69,1.51 -2.61,2.47 -5.83,3.02l-4.25 0.82c-1.17,0.14 -2.19,0.21 -3.02,0.21 -4.8,0 -8.5,-2.33 -11.04,-6.93 -2.54,-4.66 -3.77,-9.67 -3.77,-15.22 0,-5.49 2.06,-10.36 6.17,-14.61 4.18,-4.32 9.67,-6.45 16.53,-6.45 10.84,0 18.31,3.43 22.49,10.36 4.11,6.86 6.24,15.57 6.24,26.13 0,10.49 -0.96,22.36 -2.81,35.52 -1.92,13.24 -4.87,26.47 -8.85,39.91 -8.98,30.11 -22.36,55.07 -40.12,74.82 -17.76,19.75 -39.57,29.63 -65.56,29.63 -15.57,0 -27.84,-3.91 -36.9,-11.86 -9.05,-7.89 -13.58,-20.09 -13.58,-36.55 0,-6.86 0.69,-13.44 2.06,-19.89l29.49 -139.83 59.32 0 -29.56 139.83c-1.51,6.58 -2.19,11.52 -2.19,14.88zm347.93 -22.7c-17.42,50.75 -44.92,76.12 -82.57,76.12 -24.21,0 -37.72,-12.55 -40.39,-37.79 -17.9,25.24 -38.88,37.79 -62.75,37.79 -23.93,0 -40.19,-11.73 -48.76,-35.18 -3.09,-8.44 -4.59,-18.04 -4.59,-28.8 0,-10.77 0.96,-21.53 2.81,-32.37 1.85,-10.77 4.73,-21.53 8.64,-32.23 8.57,-23.59 20.85,-43.07 36.76,-58.43 15.91,-15.43 35.18,-23.11 57.68,-23.11 11.8,0 20.3,1.92 25.51,5.9 5.21,3.98 7.82,8.92 7.82,14.95l0 3.02 4.46 -21.88 59.25 0 -29.56 139.83c-1.17,4.66 -1.78,9.12 -1.78,13.24 0,11.8 5.62,17.69 16.87,17.69 14.61,0 25.72,-12.89 33.33,-38.75l17.28 0zm-103.62 -92.86c0,-2.54 -1.23,-5.76 -3.57,-9.74 -2.33,-3.91 -7.34,-5.9 -14.95,-5.9 -7.61,0 -15.09,4.05 -22.29,12.21 -17.42,19.75 -28.32,48.01 -32.78,84.83 -0.69,5.62 -0.96,11.59 -0.96,17.9 0,12.14 2.54,20.64 7.61,25.51 2.95,2.95 6.65,4.39 11.04,4.39 8.16,0 15.64,-3.22 22.29,-9.74 6.72,-6.52 11.32,-15.36 13.85,-26.61l19.75 -92.86zm112.09 -22.7l-13.65 0 3.36 -16.46 13.51 0 12.41 -56.85 60.9 -8.23c0,0 -4.66,21.67 -14.06,65.08l24.69 0 -3.22 16.46 -24.69 0 -26.33 123.37c-1.3,5.21 -1.99,10.08 -1.99,14.47 0,4.39 0.96,8.02 2.88,10.77 1.99,2.74 5.49,4.11 10.56,4.11 5.14,0 8.98,-0.41 11.66,-1.23 -7.89,22.77 -18.72,35.8 -32.51,39.02 -3.77,0.75 -7.48,1.17 -11.11,1.17 -14.54,0 -25.1,-4.46 -31.55,-13.37 -6.38,-8.92 -9.6,-18.38 -9.6,-28.53 0,-10.08 0.82,-18.93 2.4,-26.4l26.33 -123.37z"/>
  <path class="fil1" d="M195.66 392.33l42.85 0 0 9.99 -15.91 0 0 41.82 -11.03 0 0 -41.82 -15.91 0 0 -9.99zm86.76 0l11.03 0 0 32.34c0,2.96 -0.42,5.63 -1.26,7.99 -0.84,2.37 -1.97,4.32 -3.4,5.85 -1.43,1.53 -3.13,2.81 -5.11,3.85 -1.97,1.04 -4.03,1.76 -6.18,2.18 -2.15,0.42 -4.4,0.63 -6.77,0.63 -2.37,0 -4.63,-0.21 -6.77,-0.63 -2.15,-0.42 -4.21,-1.15 -6.18,-2.18 -1.97,-1.04 -3.68,-2.32 -5.11,-3.85 -1.43,-1.53 -2.57,-3.48 -3.4,-5.85 -0.84,-2.37 -1.26,-5.03 -1.26,-7.99l0 -32.34 11.1 0 0 31.75c0,7.4 3.87,11.1 11.62,11.1 7.8,0 11.69,-3.7 11.69,-11.1l0 -31.75zm36.2 51.81l-11.1 0 0 -51.81 21.32 0c2.71,0 5.22,0.27 7.51,0.81 2.29,0.54 4.47,1.43 6.51,2.66 2.05,1.23 3.65,2.99 4.81,5.26 1.16,2.27 1.74,4.98 1.74,8.14 0,7.85 -3.77,12.98 -11.32,15.39l15.47 19.54 -12.8 0 -13.99 -18.13 -8.14 0 0 18.13zm0 -42.04l0 14.65 10.73 0c2.52,0 4.6,-0.6 6.25,-1.81 1.65,-1.21 2.48,-3.05 2.48,-5.51 0,-2.52 -0.81,-4.37 -2.44,-5.55 -1.63,-1.18 -3.73,-1.78 -6.29,-1.78l-10.73 0zm50.78 42.04l-11.47 0 21.17 -51.81 11.99 0 21.09 51.81 -11.47 0 -3.77 -9.7 -23.68 0 -3.85 9.7zm14.51 -37.45l-7.18 18.58 16.73 0 -7.25 -18.58c-0.49,-1.38 -0.86,-2.74 -1.11,-4.07 -0.3,1.53 -0.69,2.89 -1.18,4.07zm48.64 37.45l-11.1 0 0 -51.81 21.32 0c2.71,0 5.22,0.27 7.51,0.81 2.29,0.54 4.47,1.43 6.51,2.66 2.05,1.23 3.65,2.99 4.81,5.26 1.16,2.27 1.74,4.98 1.74,8.14 0,7.85 -3.77,12.98 -11.32,15.39l15.47 19.54 -12.8 0 -13.99 -18.13 -8.14 0 0 18.13zm0 -42.04l0 14.65 10.73 0c2.52,0 4.6,-0.6 6.25,-1.81 1.65,-1.21 2.48,-3.05 2.48,-5.51 0,-2.52 -0.81,-4.37 -2.44,-5.55 -1.63,-1.18 -3.73,-1.78 -6.29,-1.78l-10.73 0zm63.59 -9.77l24.87 0 0 36.19c0,5.72 -1.73,9.92 -5.18,12.58 -3.45,2.66 -7.89,4 -13.32,4 -5.03,0 -9.5,-0.89 -13.4,-2.66l0 -10.36c3.06,1.88 6.64,2.81 10.73,2.81 6.71,0 10.07,-2.54 10.07,-7.62l0 -24.94 -13.77 0 0 -9.99zm37.94 36.05c-1.16,-3.21 -1.74,-6.59 -1.74,-10.14 0,-3.55 0.58,-6.93 1.74,-10.14 1.16,-3.21 2.86,-6.07 5.11,-8.59 2.25,-2.52 5.14,-4.52 8.7,-6 3.55,-1.48 7.55,-2.22 11.99,-2.22 4.44,0 8.44,0.74 11.99,2.22 3.55,1.48 6.45,3.48 8.7,6 2.25,2.52 3.95,5.38 5.11,8.59 1.16,3.21 1.74,6.59 1.74,10.14 0,3.55 -0.58,6.93 -1.74,10.14 -1.16,3.21 -2.86,6.07 -5.11,8.59 -2.24,2.52 -5.14,4.52 -8.7,6 -3.55,1.48 -7.55,2.22 -11.99,2.22 -4.44,0 -8.44,-0.74 -11.99,-2.22 -3.55,-1.48 -6.45,-3.48 -8.7,-6 -2.25,-2.52 -3.95,-5.38 -5.11,-8.59zm37.71 1.78c2.81,-3.16 4.22,-7.13 4.22,-11.92 0,-4.79 -1.41,-8.76 -4.22,-11.92 -2.81,-3.16 -6.78,-4.74 -11.92,-4.74 -5.18,0 -9.18,1.58 -11.99,4.74 -2.81,3.16 -4.22,7.13 -4.22,11.92 0,4.79 1.41,8.76 4.22,11.92 2.81,3.16 6.81,4.74 11.99,4.74 5.13,0 9.1,-1.58 11.92,-4.74zm49.3 13.99l-11.03 0 0 -18.36 -20.28 -33.45 12.51 0 13.25 23.24 13.25 -23.24 12.51 0 -20.21 33.45 0 18.36zm88.68 -51.81l10.29 0 0 51.81 -11.1 0 0 -31.9 -13.69 20.8 -6.44 0 -13.69 -20.87 0 31.97 -11.1 0 0 -51.81 10.29 0 17.76 26.94 17.69 -26.94zm31.02 51.81l-11.47 0 21.17 -51.81 11.99 0 21.09 51.81 -11.47 0 -3.77 -9.7 -23.68 0 -3.85 9.7zm14.51 -37.45l-7.18 18.58 16.73 0 -7.25 -18.58c-0.49,-1.38 -0.86,-2.74 -1.11,-4.07 -0.3,1.53 -0.69,2.89 -1.18,4.07zm40.05 -14.36l24.87 0 0 36.19c0,5.72 -1.73,9.92 -5.18,12.58 -3.45,2.66 -7.89,4 -13.32,4 -5.03,0 -9.5,-0.89 -13.4,-2.66l0 -10.36c3.06,1.88 6.64,2.81 10.73,2.81 6.71,0 10.07,-2.54 10.07,-7.62l0 -24.94 -13.77 0 0 -9.99zm84.83 0l10.29 0 0 51.81 -11.1 0 0 -31.9 -13.69 20.8 -6.44 0 -13.69 -20.87 0 31.97 -11.1 0 0 -51.81 10.29 0 17.76 26.94 17.69 -26.94zm58.78 0l11.03 0 0 32.34c0,2.96 -0.42,5.63 -1.26,7.99 -0.84,2.37 -1.97,4.32 -3.4,5.85 -1.43,1.53 -3.13,2.81 -5.11,3.85 -1.97,1.04 -4.03,1.76 -6.18,2.18 -2.15,0.42 -4.4,0.63 -6.77,0.63 -2.37,0 -4.63,-0.21 -6.77,-0.63 -2.15,-0.42 -4.21,-1.15 -6.18,-2.18 -1.97,-1.04 -3.68,-2.32 -5.11,-3.85 -1.43,-1.53 -2.57,-3.48 -3.4,-5.85 -0.84,-2.37 -1.26,-5.03 -1.26,-7.99l0 -32.34 11.1 0 0 31.75c0,7.4 3.87,11.1 11.62,11.1 7.8,0 11.69,-3.7 11.69,-11.1l0 -31.75zm29.32 51.81l-11.47 0 21.17 -51.81 11.99 0 21.09 51.81 -11.47 0 -3.77 -9.7 -23.68 0 -3.85 9.7zm14.51 -37.45l-7.18 18.58 16.73 0 -7.25 -18.58c-0.49,-1.38 -0.86,-2.74 -1.11,-4.07 -0.3,1.53 -0.69,2.89 -1.18,4.07zm34.13 -0.67c0,-4.79 1.8,-8.44 5.4,-10.95 3.6,-2.52 8.12,-3.77 13.54,-3.77 6.51,0 12.11,1.33 16.8,4l0 10.36c-4.39,-3.16 -9.72,-4.69 -15.99,-4.59 -5.63,0.1 -8.44,1.7 -8.44,4.81 0,1.38 0.7,2.59 2.11,3.63 1.41,1.04 3.16,1.86 5.26,2.48 2.1,0.62 4.37,1.41 6.81,2.37 2.44,0.96 4.71,2 6.81,3.11 2.1,1.11 3.85,2.75 5.26,4.92 1.41,2.17 2.11,4.69 2.11,7.55 0,2.81 -0.53,5.23 -1.59,7.25 -1.06,2.02 -2.55,3.6 -4.48,4.74 -1.92,1.13 -4.05,1.96 -6.37,2.48 -2.32,0.52 -4.91,0.78 -7.77,0.78 -7.2,0 -13.59,-1.55 -19.17,-4.66l0 -10.58c5.53,3.65 11.64,5.48 18.36,5.48 6.46,0 9.7,-1.65 9.7,-4.96 0,-1.48 -0.7,-2.78 -2.11,-3.89 -1.41,-1.11 -3.16,-2 -5.25,-2.66 -2.1,-0.67 -4.37,-1.48 -6.81,-2.44 -2.44,-0.96 -4.71,-2 -6.81,-3.11 -2.1,-1.11 -3.85,-2.73 -5.26,-4.85 -1.41,-2.12 -2.11,-4.61 -2.11,-7.48zm50.64 -13.69l11.1 0 0 51.81 -11.1 0 0 -51.81z"/>
 </g>
</svg>
