<svg width="323" height="168" viewBox="0 0 323 168" fill="none" xmlns="http://www.w3.org/2000/svg">
<path d="M69.8789 167.678H67V150.322H69.8789V157.562H73.3637L78.2882 150.322H81.5459L75.6872 158.777L82.0006 167.678H78.7428L73.4143 160.165H69.8789V167.678ZM82.5759 162.347C82.1802 161.289 81.9825 160.174 81.9825 159C81.9825 157.826 82.1802 156.711 82.5759 155.653C82.9716 154.595 83.5399 153.64 84.2803 152.789C85.0212 151.938 85.9976 151.26 87.2098 150.756C88.422 150.252 89.7772 150 91.2757 150C92.7741 150 94.1251 150.252 95.329 150.756C96.5327 151.26 97.509 151.938 98.2582 152.789C99.0075 153.64 99.58 154.595 99.9755 155.653C100.371 156.711 100.569 157.826 100.569 159C100.569 160.174 100.371 161.289 99.9755 162.347C99.5798 163.405 99.0073 164.359 98.2582 165.211C97.509 166.062 96.5327 166.74 95.329 167.244C94.1251 167.748 92.7741 168 91.2757 168C89.7772 168 88.422 167.748 87.2098 167.244C85.9976 166.74 85.0212 166.062 84.2803 165.211C83.5397 164.359 82.9714 163.405 82.5759 162.347ZM95.9856 163.513C97.0883 162.289 97.6396 160.785 97.6396 159C97.6396 157.215 97.0881 155.711 95.9856 154.488C94.8827 153.265 93.3129 152.653 91.2759 152.653C89.2558 152.653 87.6899 153.265 86.5788 154.488C85.4676 155.711 84.9122 157.215 84.9122 159C84.9122 160.785 85.4678 162.289 86.5788 163.513C87.6901 164.736 89.2558 165.347 91.2759 165.347C93.3129 165.347 94.8829 164.736 95.9856 163.513ZM101.031 150.322H115.602V152.926H109.768V167.678H106.89V152.926H101.031V150.322ZM116.114 150.322H130.685V152.926H124.852V167.678H121.973V152.926H116.114V150.322ZM132.991 150.322H145.163V152.901H135.869V157.636H144.405V160.215H135.869V165.099H145.314V167.677H132.991V150.322V150.322ZM149.438 150.322H157.291V162.62C157.291 164.438 156.728 165.785 155.6 166.661C154.472 167.537 153.016 167.975 151.231 167.975C149.446 167.975 147.931 167.637 146.685 166.959V164.256C147.779 164.951 149.092 165.298 150.625 165.298C153.15 165.298 154.413 164.322 154.413 162.372V152.926H149.438V150.323V150.322ZM179.244 150.322H182.123V161.256C182.123 162.463 181.917 163.517 181.504 164.417C181.092 165.318 180.528 166.021 179.812 166.525C179.097 167.029 178.305 167.401 177.439 167.641C176.571 167.88 175.625 168 174.597 168C173.57 168 172.619 167.88 171.744 167.641C170.868 167.401 170.069 167.029 169.345 166.525C168.621 166.021 168.053 165.318 167.64 164.417C167.228 163.517 167.022 162.463 167.022 161.256V150.322H169.901V161.107C169.901 163.95 171.466 165.372 174.597 165.372C177.695 165.372 179.244 163.95 179.244 161.107V150.322ZM193.873 167.678H190.994V161.306L184.074 150.322H187.307L192.433 158.727L197.585 150.322H200.818L193.873 161.306V167.678H193.873ZM202.946 150.322H205.825V165.05H215.118V167.678H202.946V150.322ZM218.484 167.678H215.429L222.904 150.322H226.06L233.51 167.678H230.48L228.914 163.934H220.05L218.485 167.678H218.484ZM224.141 154.041L221.035 161.455H227.904L224.798 154.041C224.663 153.678 224.553 153.355 224.469 153.074C224.385 153.355 224.276 153.678 224.141 154.041ZM238.492 167.678H235.613V150.322H242.684C243.56 150.322 244.38 150.413 245.146 150.595C245.912 150.777 246.632 151.07 247.305 151.475C247.979 151.88 248.509 152.446 248.896 153.173C249.284 153.901 249.477 154.76 249.477 155.752C249.477 157.207 249.082 158.351 248.29 159.186C247.499 160.021 246.464 160.587 245.184 160.884L250.841 167.678H247.381L242.078 161.182H238.492V167.678H238.492ZM238.492 152.901V158.678H242.811C243.888 158.678 244.78 158.454 245.487 158.008C246.194 157.562 246.548 156.826 246.548 155.802C246.548 154.777 246.194 154.037 245.487 153.583C244.78 153.128 243.888 152.901 242.811 152.901H238.492ZM253.121 150.322H256V167.678H253.121V150.322Z" fill="#EDC653"/>
<path fill-rule="evenodd" clip-rule="evenodd" d="M208.169 36.5992C199.688 36.5992 196.795 44.2055 196.795 51.6316C196.795 59.6493 199.002 66.6642 208.169 66.6642C217.429 66.6642 219.43 59.253 219.43 51.2933C219.43 43.7542 216.709 36.5992 208.169 36.5992ZM207.607 83.6317C201.427 83.6317 195.571 85.7116 192.443 91.3796C190.858 94.2531 190.256 97.5934 190.384 100.855C190.709 109.126 194.304 116.863 202.636 119.472C208.242 121.227 214.525 120.041 219.365 116.794C225.087 112.956 228.169 106.832 228.489 99.9886C228.705 95.3799 227.17 91.1397 224.146 87.6753C221.692 84.8636 218.236 83.6317 214.57 83.6317H207.607ZM91.7101 73.1461C94.5625 62.7157 107.174 60.2663 116.724 59.6724C121.801 59.3566 125.436 56.5901 125.436 51.2934C125.436 47.7375 123.746 44.0834 121.428 41.453C118.847 38.5248 115.317 36.5992 111.367 36.5992C105.729 36.5992 100.628 39.5354 97.0461 43.7843C92.3461 49.3602 90.4477 56.7319 90.4477 63.9255C90.4477 67.0662 90.8382 70.1522 91.7101 73.146V73.1461ZM93.2608 77.3559C95.2025 81.5626 98.1813 85.2201 102.032 87.803C105.449 90.0953 109.485 91.4776 113.613 91.4776C123.814 91.4776 131.623 85.6625 136.624 76.9682L136.885 76.515L138.841 77.6068L138.542 78.0827C131.927 88.5927 123.915 93.8953 111.254 93.8953C103.606 93.8953 95.9301 91.015 90.1854 85.9379C83.7629 80.2622 80.404 72.5004 80.404 63.9255C80.404 55.407 83.7982 47.7237 90.1864 42.1093C95.9375 37.0552 103.616 34.1813 111.254 34.1813C117.223 34.1813 123.308 36.286 128.093 39.8551C131.617 42.4843 135.48 46.836 135.48 51.519C135.48 51.8039 135.463 52.0888 135.43 52.372C135.074 55.4016 132.911 57.6119 130.367 59.0498C126.458 61.2595 121.301 61.9597 116.885 62.0891C109.42 62.3076 99.2443 64.0571 95.0672 71.1366C93.9413 73.0449 93.3771 75.1514 93.2608 77.3559ZM310.252 92.7677V35.3092H320.295V92.7677H310.252ZM305.885 92.7677H295.841V0H305.885V92.7677ZM193.714 64.4124C189.523 61.3266 186.751 56.8916 186.751 51.5191C186.751 40.3807 198.245 34.1814 208.169 34.1814H231.608V36.3736H218.511C224.648 39.1078 229.474 44.3329 229.474 51.519C229.474 62.7833 218.244 69.0821 208.169 69.0821C203.909 69.0821 199.375 67.8793 195.672 65.7203C194.482 66.9612 193.538 68.7414 193.538 70.4671C193.538 71.0889 193.659 71.7075 194.062 72.1979C194.906 73.2247 196.84 73.429 198.066 73.5127C200.493 73.6783 203.034 73.5441 205.473 73.5441H210.752C216.198 73.5441 221.629 74.6663 226.394 77.3834C230.21 79.5593 233.431 82.682 235.562 86.5483C237.638 90.3165 238.539 94.4538 238.07 98.7435C234.624 130.298 181.699 130.265 180.801 100.888C180.766 99.7501 180.842 98.6087 181.035 97.487C181.703 93.6129 183.698 90.2783 186.66 87.7284C189.717 85.0969 193.529 83.5098 197.446 82.6218C193.122 81.4962 188.772 79.1041 188.772 74.0763C188.772 70.4292 191.008 66.7978 193.714 64.4122V64.4124ZM151.538 52.794C153.946 43.7736 159.005 34.1814 169.313 34.1814C171.538 34.1814 173.713 34.686 175.702 35.6887C181.625 38.6742 184.442 45.0914 184.442 51.5191V52.0513H174.367L174.399 51.4888C174.616 47.6721 174.873 40.627 171.685 37.8739C170.599 36.9364 169.262 36.5993 167.854 36.5993C167.178 36.5993 166.507 36.6806 165.85 36.8421C160.662 38.1198 157.282 44.0882 155.45 48.6838C152.726 55.5142 151.539 63.5769 151.539 70.9184V92.7675H141.495V35.3091H151.539V52.7939L151.538 52.794ZM180.429 110.224C180.977 111.416 181.634 112.555 182.387 113.628L182.763 114.163L182.165 114.423C170.928 119.316 160.119 120.021 148.146 118.082C136.227 116.152 124.784 112.021 112.834 110.153C98.7996 107.959 86.4945 109.364 73.5891 115.57L70.5585 117.028L72.9953 114.704C74.9833 112.809 76.7145 110.667 78.132 108.31L78.2312 108.145L78.4123 108.082C88.364 104.617 97.9845 104.374 108.296 106.044C119.779 107.903 130.826 111.81 142.305 113.758C155.506 115.999 167.293 115.232 179.742 109.957L180.214 109.757L180.429 110.224L180.429 110.224ZM0 104.142L6.05512 97.9931L6.42679 98.4628C10.7243 103.895 15.3051 109.649 20.9935 113.674C27.4714 118.258 34.4823 119.904 42.338 119.904C48.5093 119.904 54.8793 118.557 60.3861 115.716C65.2106 113.227 69.5493 109.469 71.835 104.441C72.9418 102.006 73.4976 99.4117 73.4976 96.7351C73.4976 67.7858 7.42192 70.5539 7.42192 32.0647C7.42192 25.2143 9.53748 18.7255 13.7089 13.2921C20.4572 4.50227 31.2724 0.0438064 42.1696 0.0438064C52.8425 0.0438064 64.3571 3.46474 73.3038 9.2708L73.7835 9.58211L68.8501 16.1211L68.4331 15.8331C63.7756 12.617 58.9106 9.27826 53.8816 6.68094C50.3577 4.86065 46.1938 3.13961 42.1696 3.13961C34.7392 3.13961 27.333 5.43603 21.6564 10.3535C17.205 14.2096 13.8758 19.7638 13.8758 25.8006C13.8758 52.4958 80.2887 47.6185 80.2887 90.4711C80.2887 112.517 62.4289 123 42.3382 123C25.2031 123 11.0112 118.387 0.285209 104.51L0.000309337 104.142H0ZM323 24.3559C319.354 23.1453 316.493 20.2724 315.288 16.6104C314.083 20.2724 311.222 23.1453 307.576 24.3559C311.222 25.5665 314.083 28.4394 315.288 32.1014C316.493 28.4394 319.354 25.5665 323 24.3559ZM246.921 73.1463C249.774 62.7159 262.385 60.2664 271.936 59.6726C277.013 59.3567 280.647 56.5903 280.647 51.2936C280.647 47.7376 278.958 44.0835 276.639 41.4531C274.059 38.5249 270.529 36.5993 266.578 36.5993C260.941 36.5993 255.839 39.5356 252.258 43.7845C247.557 49.3603 245.659 56.7321 245.659 63.9257C245.659 67.0664 246.05 70.1524 246.921 73.1461V73.1463ZM248.472 77.3561C250.414 81.5627 253.393 85.2202 257.243 87.8031C260.66 90.0955 264.697 91.4777 268.824 91.4777C279.025 91.4777 286.834 85.6627 291.836 76.9683L292.097 76.5152L294.053 77.6069L293.753 78.0829C287.138 88.5929 279.126 93.8955 266.466 93.8955C258.818 93.8955 251.141 91.0151 245.397 85.9381C238.974 80.2624 235.615 72.5005 235.615 63.9257C235.615 55.4072 239.01 47.7238 245.398 42.1095C251.149 37.0554 258.827 34.1814 266.466 34.1814C272.435 34.1814 278.52 36.2862 283.304 39.8553C286.829 42.4844 290.691 46.8362 290.691 51.5191C290.691 51.804 290.675 52.0889 290.641 52.3721C290.285 55.4017 288.122 57.6121 285.578 59.0499C281.669 61.2597 276.512 61.9598 272.096 62.0892C264.631 62.3078 254.456 64.0572 250.279 71.1368C249.153 73.045 248.588 75.1516 248.472 77.3561Z" fill="#EDC653"/>
</svg>
