<?xml version="1.0" encoding="UTF-8"?>
<!DOCTYPE svg PUBLIC "-//W3C//DTD SVG 1.1//EN" "http://www.w3.org/Graphics/SVG/1.1/DTD/svg11.dtd">
<!-- Creator: CorelDRAW 2020 (64-Bit) -->
<svg xmlns="http://www.w3.org/2000/svg" xml:space="preserve" width="41.5956mm" height="9.9366mm" version="1.1" style="shape-rendering:geometricPrecision; text-rendering:geometricPrecision; image-rendering:optimizeQuality; fill-rule:evenodd; clip-rule:evenodd"
viewBox="0 0 1570.26 375.11"
 xmlns:xlink="http://www.w3.org/1999/xlink"
 xmlns:xodm="http://www.corel.com/coreldraw/odm/2003">
 <defs>
  <style type="text/css">
   <![CDATA[
    .fil0 {fill:#EDC653}
    .fil1 {fill:white;fill-rule:nonzero}
   ]]>
  </style>
 </defs>
 <g id="Слой_x0020_1">
  <metadata id="CorelCorpID_0Corel-Layer"/>
  <g id="_1561975970672">
   <path class="fil0" d="M174.17 198.59l24.42 0 0 -81.19 -81.19 0 0 137.97 56.77 -56.77zm-4 64.2l-58.48 0 0 -208.3 149.82 0 0 149.82 -81.62 0 0 48.77 130.39 0 0 -247.36 -247.36 0 0 306.49 107.26 0 0 -49.41zm-112.12 -262.79l257.93 0 0 258.79 -57.2 57.2 -82.91 0 0 1.93 -57.2 57.2 -118.69 0 0 -317.91 57.2 -57.2 0.85 0z"/>
   <path class="fil1" d="M385.47 223.35l43.73 0 0 -63.72 68.09 0c44.67,0 86.21,-33.42 86.21,-77.46 0,-46.54 -39.36,-77.47 -86.21,-77.47l-111.82 0 0 218.66zm154.31 -141.19c0,20.62 -18.43,36.55 -42.48,36.55l-68.09 0 0 -73.72 68.09 0c24.36,0 42.48,15.62 42.48,37.17zm190.23 -19.68c-33.42,0 -59.35,17.49 -73.72,45.29l-4.68 -40.61 -39.05 0 0 156.18 43.73 0 0 -44.36c0,-43.73 27.18,-70.28 73.72,-70.28l0 -46.23zm30.3 -42.48c0,12.49 8.12,20.3 20.62,20.3 11.87,0 19.99,-7.81 19.99,-20.3 0,-11.56 -8.12,-19.99 -19.99,-19.99 -12.5,0 -20.62,8.43 -20.62,19.99zm42.48 203.35l0 -156.18 -43.73 0 0 156.18 43.73 0zm41.86 -112.45l83.71 0 -88.09 77.78 0 34.67 156.18 0 0 -43.73 -90.59 0 85.9 -77.78 0 -34.67 -147.12 0 0 43.73zm231.77 39.67c0,-28.11 17.8,-47.79 44.04,-47.79 26.24,0 44.67,19.68 44.67,47.79l0 72.78 43.73 0 0 -72.78c0,-28.11 17.81,-47.79 44.04,-47.79 26.24,0 44.67,19.68 44.67,47.79l0 72.78 43.73 0 0 -72.78c0,-52.17 -32.17,-88.09 -77.15,-88.09 -28.74,0 -52.16,17.18 -64.35,44.35 -12.5,-27.49 -37.17,-44.35 -68.1,-44.35 -23.11,0 -42.79,11.25 -55.91,29.36l-4.06 -24.68 -39.05 0 0 156.18 43.73 0 0 -72.78zm493.85 72.78l0 -156.18 -38.73 0 -4.37 20.62c-15.93,-16.24 -39.05,-25.3 -65.29,-25.3 -52.16,0 -90.9,35.3 -90.9,83.09 0,47.17 39.05,82.46 90.9,82.46 26.55,0 49.36,-9.37 65.29,-25.3l4.37 20.62 38.73 0zm-155.56 -77.78c0,-25.93 23.74,-44.67 56.54,-44.67 32.8,0 55.29,18.43 55.29,44.67 0,25.92 -22.18,43.73 -55.29,43.73 -32.8,0 -56.54,-18.43 -56.54,-43.73l0 0z"/>
   <path class="fil1" d="M651.86 335.54l29.66 0c16.58,0 32.44,-13.53 32.44,-31.46 0,-18.55 -14.96,-31.28 -32.44,-31.28l-29.66 0 0 62.73zm49.56 -31.46c0,11.38 -8.52,19.45 -19.9,19.45l-17.12 0 0 -38.72 17.12 0c11.47,0 19.9,7.89 19.9,19.27zm71.42 12.19c0.18,-0.99 0.18,-2.06 0.18,-3.05 0,-14.25 -11.47,-23.84 -26.8,-23.84 -15.5,0 -26.98,10.13 -26.98,23.84 0,13.53 11.56,23.66 26.98,23.66 12.28,0 21.87,-5.92 25.27,-15.05l-12.73 0c-2.33,3.22 -6.63,5.2 -12.01,5.2 -7.53,0 -13.27,-4.3 -14.61,-10.76l40.69 0zm-40.69 -6.27c1.34,-6.27 6.81,-10.48 14.07,-10.48 7.35,0 12.64,4.12 13.89,10.48l-27.96 0zm43.73 -19.27l22.58 44.81 13.98 0 22.4 -44.81 -13.98 0 -15.41 30.92 -15.68 -30.92 -13.89 0zm113.91 25.54c0.18,-0.99 0.18,-2.06 0.18,-3.05 0,-14.25 -11.47,-23.84 -26.8,-23.84 -15.5,0 -26.98,10.13 -26.98,23.84 0,13.53 11.56,23.66 26.98,23.66 12.28,0 21.87,-5.92 25.27,-15.05l-12.73 0c-2.33,3.22 -6.63,5.2 -12.01,5.2 -7.53,0 -13.27,-4.3 -14.61,-10.76l40.69 0zm-40.69 -6.27c1.34,-6.27 6.81,-10.48 14.07,-10.48 7.35,0 12.64,4.12 13.89,10.48l-27.96 0zm62.02 -37.19l-12.55 0 0 62.73 12.55 0 0 -62.73zm8.51 40.42c0,13.53 11.74,23.66 27.43,23.66 15.95,0 27.51,-9.68 27.51,-23.66 0,-14.25 -11.56,-23.84 -27.51,-23.84 -15.77,0 -27.43,10.13 -27.43,23.84zm12.55 0c0,-7.17 6.27,-12.28 14.88,-12.28 8.96,0 14.96,5.11 14.96,12.28 0,6.99 -6,12.01 -14.96,12.01 -8.51,0 -14.88,-5.02 -14.88,-12.01zm51.08 -22.5l0 62.73 12.55 0 0 -23.57c4.57,4.48 11.02,6.99 18.46,6.99 14.97,0 26.08,-10.13 26.08,-23.84 0,-13.53 -11.2,-23.66 -26.08,-23.66 -7.53,0 -14.07,2.6 -18.64,7.08l-1.16 -5.73 -11.2 0zm44.54 22.31c0,7.35 -6.63,12.73 -16.22,12.73 -9.41,0 -15.77,-5.2 -15.77,-12.73 0,-7.44 6.36,-12.64 15.77,-12.64 9.41,0 16.22,5.29 16.22,12.64l0 0zm33.88 1.62c0,-8.07 5.11,-13.71 12.64,-13.71 7.53,0 12.82,5.65 12.82,13.71l0 20.88 12.55 0 0 -20.88c0,-8.07 5.11,-13.71 12.64,-13.71 7.53,0 12.82,5.65 12.82,13.71l0 20.88 12.54 0 0 -20.88c0,-14.97 -9.23,-25.27 -22.13,-25.27 -8.24,0 -14.97,4.93 -18.46,12.73 -3.58,-7.89 -10.66,-12.73 -19.54,-12.73 -6.63,0 -12.28,3.23 -16.04,8.42l-1.16 -7.08 -11.2 0 0 44.81 12.55 0 0 -20.88zm138.1 1.61c0.18,-0.99 0.18,-2.06 0.18,-3.05 0,-14.25 -11.47,-23.84 -26.8,-23.84 -15.5,0 -26.98,10.13 -26.98,23.84 0,13.53 11.56,23.66 26.98,23.66 12.28,0 21.87,-5.92 25.27,-15.05l-12.73 0c-2.33,3.22 -6.63,5.2 -12.01,5.2 -7.53,0 -13.27,-4.3 -14.61,-10.76l40.69 0zm-40.69 -6.27c1.34,-6.27 6.81,-10.48 14.07,-10.48 7.35,0 12.64,4.12 13.89,10.48l-27.96 0zm62.02 4.66c0,-8.07 5.38,-13.71 13.35,-13.71 7.98,0 13.71,5.65 13.71,13.71l0 20.88 12.55 0 0 -20.88c0,-14.97 -9.41,-25.27 -22.85,-25.27 -6.99,0 -12.9,3.31 -16.85,8.69l-1.25 -7.35 -11.2 0 0 44.81 12.55 0 0 -20.88zm69.81 -12.37l12.91 0 0 -11.56 -12.91 0 0 -10.04 -5.02 0 -16.67 16.58 0 5.02 9.14 0 0 12.28c0,14.07 8.87,22.31 25.45,22.31l0 -11.65c-8.6,0 -12.91,-3.5 -12.91,-10.66l0 -12.28z"/>
  </g>
 </g>
</svg>
