<?xml version="1.0" encoding="UTF-8"?>
<!DOCTYPE svg PUBLIC "-//W3C//DTD SVG 1.1//EN" "http://www.w3.org/Graphics/SVG/1.1/DTD/svg11.dtd">
<!-- Creator: CorelDRAW 2020 (64-Bit) -->
<svg xmlns="http://www.w3.org/2000/svg" xml:space="preserve" width="41.5956mm" height="9.9366mm" version="1.1" style="shape-rendering:geometricPrecision; text-rendering:geometricPrecision; image-rendering:optimizeQuality; fill-rule:evenodd; clip-rule:evenodd"
viewBox="0 0 1624.89 388.16"
 xmlns:xlink="http://www.w3.org/1999/xlink"
 xmlns:xodm="http://www.corel.com/coreldraw/odm/2003">
 <defs>
  <style type="text/css">
   <![CDATA[
    .fil1 {fill:#EDC653}
    .fil0 {fill:white}
    .fil2 {fill:#333333;fill-rule:nonzero}
   ]]>
  </style>
 </defs>
 <g id="Слой_x0020_1">
  <metadata id="CorelCorpID_0Corel-Layer"/>
  <g id="_1561969488640">
   <g>
    <polygon class="fil0" points="60.07,0 326.98,0 326.98,267.79 267.79,326.98 182,326.98 182,328.98 122.81,388.16 -0,388.16 -0,59.19 59.19,0 "/>
    <path class="fil1" d="M180.23 205.5l25.27 0 0 -84.02 -84.02 0 0 142.77 58.75 -58.75zm-4.14 66.43l-60.52 0 0 -215.55 155.03 0 0 155.03 -84.46 0 0 50.47 134.93 0 0 -255.97 -255.97 0 0 317.15 110.99 0 0 -51.13zm-116.02 -271.93l266.91 0 0 267.79 -59.19 59.19 -85.79 0 0 2 -59.19 59.19 -122.81 0 0 -328.97 59.19 -59.19 0.88 0z"/>
   </g>
   <path class="fil2" d="M398.88 231.12l45.25 0 0 -65.94 70.46 0c46.22,0 89.21,-34.58 89.21,-80.16 0,-48.16 -40.72,-80.16 -89.21,-80.16l-115.71 0 0 226.26zm159.67 -146.1c0,21.33 -19.07,37.82 -43.96,37.82l-70.46 0 0 -76.28 70.46 0c25.21,0 43.96,16.16 43.96,38.47zm196.85 -20.36c-34.58,0 -61.41,18.1 -76.28,46.87l-4.85 -42.02 -40.4 0 0 161.62 45.25 0 0 -45.9c0,-45.25 28.12,-72.73 76.28,-72.73l0 -47.84zm31.35 -43.96c0,12.93 8.4,21.01 21.33,21.01 12.28,0 20.69,-8.08 20.69,-21.01 0,-11.96 -8.41,-20.69 -20.69,-20.69 -12.93,0 -21.33,8.73 -21.33,20.69zm43.96 210.42l0 -161.62 -45.25 0 0 161.62 45.25 0zm43.31 -116.36l86.62 0 -91.15 80.48 0 35.88 161.62 0 0 -45.25 -93.74 0 88.89 -80.48 0 -35.88 -152.24 0 0 45.25zm239.84 41.05c0,-29.09 18.42,-49.45 45.58,-49.45 27.15,0 46.22,20.36 46.22,49.45l0 75.31 45.25 0 0 -75.31c0,-29.09 18.43,-49.45 45.58,-49.45 27.15,0 46.22,20.36 46.22,49.45l0 75.31 45.25 0 0 -75.31c0,-53.98 -33.29,-91.15 -79.84,-91.15 -29.74,0 -53.98,17.78 -66.58,45.9 -12.93,-28.44 -38.47,-45.9 -70.47,-45.9 -23.92,0 -44.28,11.64 -57.86,30.38l-4.2 -25.54 -40.4 0 0 161.62 45.25 0 0 -75.31zm511.03 75.31l0 -161.62 -40.08 0 -4.52 21.33c-16.48,-16.81 -40.4,-26.18 -67.56,-26.18 -53.98,0 -94.06,36.52 -94.06,85.98 0,48.81 40.4,85.33 94.06,85.33 27.47,0 51.07,-9.7 67.56,-26.18l4.52 21.33 40.08 0zm-160.97 -80.48c0,-26.83 24.56,-46.22 58.5,-46.22 33.94,0 57.21,19.07 57.21,46.22 0,26.83 -22.95,45.25 -57.21,45.25 -33.94,0 -58.5,-19.07 -58.5,-45.25l0 0z"/>
   <path class="fil2" d="M674.53 347.21l30.7 0c17.16,0 33.57,-14 33.57,-32.55 0,-19.2 -15.48,-32.36 -33.57,-32.36l-30.7 0 0 64.92zm51.29 -32.55c0,11.78 -8.81,20.13 -20.59,20.13l-17.71 0 0 -40.06 17.71 0c11.87,0 20.59,8.16 20.59,19.94zm73.91 12.61c0.18,-1.02 0.18,-2.13 0.18,-3.15 0,-14.75 -11.87,-24.67 -27.73,-24.67 -16.04,0 -27.92,10.48 -27.92,24.67 0,14 11.97,24.48 27.92,24.48 12.71,0 22.63,-6.12 26.15,-15.58l-13.17 0c-2.41,3.34 -6.86,5.38 -12.43,5.38 -7.79,0 -13.73,-4.45 -15.12,-11.13l42.1 0zm-42.1 -6.49c1.39,-6.49 7.05,-10.85 14.56,-10.85 7.61,0 13.07,4.27 14.38,10.85l-28.93 0zm45.26 -19.94l23.37 46.37 14.47 0 23.18 -46.37 -14.47 0 -15.95 31.99 -16.23 -31.99 -14.38 0zm117.87 26.43c0.18,-1.02 0.18,-2.13 0.18,-3.15 0,-14.75 -11.87,-24.67 -27.73,-24.67 -16.04,0 -27.92,10.48 -27.92,24.67 0,14 11.97,24.48 27.92,24.48 12.71,0 22.63,-6.12 26.15,-15.58l-13.17 0c-2.41,3.34 -6.86,5.38 -12.43,5.38 -7.79,0 -13.73,-4.45 -15.12,-11.13l42.1 0zm-42.1 -6.49c1.39,-6.49 7.05,-10.85 14.56,-10.85 7.61,0 13.07,4.27 14.38,10.85l-28.93 0zm64.17 -38.49l-12.98 0 0 64.92 12.98 0 0 -64.92zm8.81 41.83c0,14 12.15,24.48 28.38,24.48 16.51,0 28.47,-10.02 28.47,-24.48 0,-14.75 -11.96,-24.67 -28.47,-24.67 -16.32,0 -28.38,10.48 -28.38,24.67zm12.98 0c0,-7.42 6.49,-12.71 15.4,-12.71 9.27,0 15.48,5.29 15.48,12.71 0,7.23 -6.21,12.43 -15.48,12.43 -8.81,0 -15.4,-5.2 -15.4,-12.43zm52.86 -23.28l0 64.92 12.98 0 0 -24.39c4.73,4.64 11.41,7.23 19.1,7.23 15.49,0 26.99,-10.48 26.99,-24.67 0,-14 -11.59,-24.48 -26.99,-24.48 -7.79,0 -14.56,2.69 -19.29,7.32l-1.2 -5.93 -11.59 0zm46.09 23.09c0,7.61 -6.86,13.17 -16.79,13.17 -9.74,0 -16.32,-5.38 -16.32,-13.17 0,-7.7 6.58,-13.07 16.32,-13.07 9.74,0 16.79,5.47 16.79,13.07l0 0zm35.06 1.67c0,-8.35 5.29,-14.19 13.07,-14.19 7.79,0 13.26,5.84 13.26,14.19l0 21.61 12.98 0 0 -21.61c0,-8.35 5.29,-14.19 13.07,-14.19 7.79,0 13.26,5.84 13.26,14.19l0 21.61 12.98 0 0 -21.61c0,-15.49 -9.55,-26.15 -22.9,-26.15 -8.53,0 -15.49,5.1 -19.11,13.17 -3.71,-8.16 -11.04,-13.17 -20.22,-13.17 -6.86,0 -12.7,3.34 -16.6,8.72l-1.2 -7.32 -11.59 0 0 46.37 12.98 0 0 -21.61zm142.91 1.67c0.18,-1.02 0.18,-2.13 0.18,-3.15 0,-14.75 -11.87,-24.67 -27.73,-24.67 -16.04,0 -27.92,10.48 -27.92,24.67 0,14 11.97,24.48 27.92,24.48 12.71,0 22.63,-6.12 26.15,-15.58l-13.17 0c-2.41,3.34 -6.86,5.38 -12.43,5.38 -7.79,0 -13.73,-4.45 -15.12,-11.13l42.1 0zm-42.1 -6.49c1.39,-6.49 7.05,-10.85 14.56,-10.85 7.61,0 13.07,4.27 14.38,10.85l-28.93 0zm64.17 4.82c0,-8.35 5.56,-14.19 13.82,-14.19 8.25,0 14.19,5.84 14.19,14.19l0 21.61 12.98 0 0 -21.61c0,-15.49 -9.74,-26.15 -23.65,-26.15 -7.23,0 -13.35,3.43 -17.43,9l-1.3 -7.61 -11.59 0 0 46.37 12.98 0 0 -21.61zm72.24 -12.8l13.36 0 0 -11.96 -13.36 0 0 -10.39 -5.19 0 -17.25 17.16 0 5.19 9.46 0 0 12.71c0,14.56 9.18,23.09 26.34,23.09l0 -12.06c-8.9,0 -13.36,-3.62 -13.36,-11.04l0 -12.71z"/>
  </g>
 </g>
</svg>
