<svg width="191" height="46" viewBox="0 0 191 46" fill="none" xmlns="http://www.w3.org/2000/svg">
<g id="logo" clip-path="url(#clip0_81_733)">
<g id="&#208;&#161;&#208;&#187;&#208;&#190;&#208;&#185;_1">
<path id="Vector" fill-rule="evenodd" clip-rule="evenodd" d="M25.9999 24.08H28.9999V14.23H19.1599V31L25.9999 24.08ZM25.5199 31.87H18.4699V6.61H36.6299V24.77H26.7299V30.69H42.5499V0.69H12.5499V37.86H25.5499V31.86L25.5199 31.87ZM11.9999 0H43.2399V31.38L36.2999 38.32H26.2999V38.55L19.3599 45.48H4.91992V6.94L11.8599 0H11.9999Z" fill="#EDC653"/>
<path id="Vector_2" d="M46.74 27.0803H52V19.3603H60.3C65.72 19.3603 70.76 15.3003 70.76 9.96034C70.76 4.32034 66 0.570339 60.3 0.570339H46.74V27.0803ZM65.45 10.0003C65.45 12.5003 63.22 14.4303 60.3 14.4303H52V5.45034H60.3C63.26 5.45034 65.45 7.35034 65.45 10.0003ZM88.52 7.58034C86.6615 7.54809 84.8326 8.04774 83.2486 9.02042C81.6647 9.9931 80.3918 11.3983 79.58 13.0703L79 8.14034H74.28V27.0803H79.58V21.7003C79.58 16.4003 82.88 13.1803 88.52 13.1803V7.58034ZM92.19 2.42034C92.1685 2.75725 92.2163 3.09499 92.3305 3.4127C92.4447 3.7304 92.6228 4.02134 92.8538 4.26753C93.0848 4.51372 93.3638 4.70994 93.6736 4.84408C93.9834 4.97822 94.3174 5.04742 94.655 5.04742C94.9926 5.04742 95.3266 4.97822 95.6364 4.84408C95.9462 4.70994 96.2252 4.51372 96.4562 4.26753C96.6872 4.02134 96.8653 3.7304 96.9795 3.4127C97.0936 3.09499 97.1415 2.75725 97.12 2.42034C97.0801 1.79372 96.803 1.20582 96.3451 0.776187C95.8872 0.34655 95.2829 0.107422 94.655 0.107422C94.0271 0.107422 93.4228 0.34655 92.9649 0.776187C92.507 1.20582 92.2299 1.79372 92.19 2.42034ZM97.35 27.0803V8.14034H92V27.0803H97.35ZM102.42 13.4503H112.57L101.89 22.8803V27.0803H120.83V21.7803H109.83L120.25 12.3503V8.14034H102.42V13.4503ZM130.53 18.2603C130.53 14.8503 132.68 12.4603 135.87 12.4603C139.06 12.4603 141.28 14.8503 141.28 18.2603V27.0803H146.59V18.2603C146.59 14.8503 148.74 12.4603 151.93 12.4603C155.12 12.4603 157.34 14.8503 157.34 18.2603V27.0803H162.65V18.2603C162.65 11.9303 158.74 7.58034 153.29 7.58034C151.603 7.5981 149.96 8.11855 148.571 9.07513C147.181 10.0317 146.109 11.381 145.49 12.9503C144.803 11.3358 143.65 9.9627 142.179 9.00625C140.707 8.0498 138.985 7.55337 137.23 7.58034C135.896 7.58235 134.583 7.90722 133.403 8.52717C132.222 9.14711 131.209 10.0437 130.45 11.1403L129.96 8.14034H125.22V27.0803H130.53V18.2603ZM190.41 27.0803V8.14034H185.71L185.18 10.6403C184.133 9.62714 182.894 8.83426 181.535 8.30865C180.176 7.78304 178.726 7.53538 177.27 7.58034C170.94 7.58034 166.27 11.8603 166.27 17.6503C166.27 23.4403 171.01 27.6503 177.27 27.6503C178.726 27.6878 180.175 27.4357 181.533 26.9087C182.891 26.3817 184.13 25.5903 185.18 24.5803L185.71 27.0803H190.41ZM171.55 17.6503C171.55 14.5103 174.43 12.2303 178.4 12.2303C182.37 12.2303 185.11 14.4703 185.11 17.6503C185.11 20.8303 182.42 23.0003 178.4 23.0003C174.38 23.0003 171.55 20.7703 171.55 17.7003V17.6503Z" fill="white"/>
<path id="Vector_3" d="M79 40.6897H82.6C83.6228 40.6876 84.6046 40.2879 85.338 39.575C86.0714 38.8621 86.4989 37.892 86.53 36.8697C86.5303 36.36 86.4279 35.8555 86.2287 35.3863C86.0296 34.9171 85.7378 34.4929 85.3709 34.1391C85.004 33.7852 84.5695 33.509 84.0934 33.327C83.6173 33.145 83.1094 33.0609 82.6 33.0797H79V40.6897ZM85 36.8697C85.0071 37.1859 84.9493 37.5001 84.8301 37.793C84.7108 38.0859 84.5327 38.3511 84.3068 38.5724C84.0809 38.7936 83.8119 38.9661 83.5166 39.0792C83.2213 39.1923 82.9059 39.2435 82.59 39.2297H80.56V34.5297H82.64C82.9549 34.5131 83.2699 34.5617 83.5651 34.6725C83.8604 34.7833 84.1296 34.9539 84.3559 35.1736C84.5821 35.3933 84.7606 35.6573 84.88 35.9492C84.9995 36.2411 85.0573 36.5545 85.05 36.8697H85ZM93.66 38.3497C93.6749 38.2268 93.6749 38.1026 93.66 37.9797C93.6465 37.5732 93.5505 37.1736 93.3777 36.8053C93.205 36.437 92.9592 36.1076 92.6552 35.8373C92.3512 35.567 91.9954 35.3613 91.6094 35.2328C91.2234 35.1043 90.8154 35.0556 90.41 35.0897C90.0033 35.0417 89.591 35.0804 89.2004 35.2032C88.8097 35.326 88.4494 35.5302 88.1433 35.8022C87.8373 36.0743 87.5923 36.4081 87.4245 36.7817C87.2567 37.1553 87.17 37.5602 87.17 37.9697C87.17 38.3793 87.2567 38.7841 87.4245 39.1577C87.5923 39.5313 87.8373 39.8651 88.1433 40.1372C88.4494 40.4093 88.8097 40.6135 89.2004 40.7363C89.591 40.8591 90.0033 40.8977 90.41 40.8497C91.0619 40.914 91.7174 40.7695 92.2818 40.4369C92.8462 40.1044 93.2903 39.6011 93.55 38.9997H92C91.8226 39.2113 91.5982 39.3785 91.3447 39.4879C91.0912 39.5973 90.8156 39.6459 90.54 39.6297C90.1389 39.6573 89.741 39.5419 89.4169 39.3039C89.0929 39.0659 88.8637 38.7207 88.77 38.3297L93.66 38.3497ZM88.73 37.5897C88.819 37.2101 89.0396 36.8743 89.3526 36.6418C89.6656 36.4094 90.0509 36.2953 90.44 36.3197C90.8267 36.2901 91.211 36.4028 91.5204 36.6367C91.8298 36.8706 92.0431 37.2096 92.12 37.5897H88.73ZM94.03 35.2497L96.77 40.6897H98.47L101.18 35.2497H99.54L97.67 38.9997L95.77 35.2497H94.03ZM101.4 37.9997C101.415 38.4111 101.515 38.8149 101.694 39.1859C101.872 39.557 102.125 39.8874 102.436 40.1566C102.747 40.4258 103.111 40.6281 103.504 40.7507C103.897 40.8734 104.311 40.9139 104.72 40.8697C106.66 40.8697 108.06 39.6997 108.06 37.9997C108.06 36.2997 106.66 35.1097 104.72 35.1097C104.309 35.0655 103.893 35.1065 103.499 35.2304C103.105 35.3543 102.741 35.5583 102.429 35.8297C102.117 36.101 101.865 36.4338 101.688 36.8073C101.511 37.1807 101.413 37.5867 101.4 37.9997ZM102.92 37.9997C102.935 37.7816 102.994 37.5687 103.093 37.3741C103.193 37.1795 103.331 37.0072 103.5 36.8678C103.668 36.7284 103.863 36.6248 104.073 36.5632C104.283 36.5016 104.503 36.4834 104.72 36.5097C105.81 36.5097 106.54 37.1297 106.54 37.9997C106.54 38.8697 105.81 39.4597 104.72 39.4597C104.505 39.4861 104.287 39.4688 104.08 39.4091C103.872 39.3494 103.678 39.2484 103.51 39.1121C103.342 38.9758 103.203 38.8071 103.102 38.616C103 38.4248 102.939 38.2153 102.92 37.9997ZM110.64 33.0997H109.11V40.7097H110.64V33.0997ZM118.17 38.3697C118.18 38.2466 118.18 38.1229 118.17 37.9997C118.157 37.5932 118.06 37.1936 117.888 36.8253C117.715 36.457 117.469 36.1276 117.165 35.8573C116.861 35.587 116.505 35.3813 116.119 35.2528C115.733 35.1243 115.325 35.0756 114.92 35.1097C114.513 35.0617 114.101 35.1004 113.71 35.2232C113.32 35.346 112.959 35.5502 112.653 35.8222C112.347 36.0943 112.102 36.4281 111.935 36.8017C111.767 37.1753 111.68 37.5802 111.68 37.9897C111.68 38.3993 111.767 38.8041 111.935 39.1777C112.102 39.5513 112.347 39.8851 112.653 40.1572C112.959 40.4293 113.32 40.6335 113.71 40.7563C114.101 40.8791 114.513 40.9177 114.92 40.8697C115.565 40.9209 116.209 40.7678 116.762 40.4321C117.315 40.0965 117.748 39.5953 118 38.9997H116.46C116.284 39.2132 116.06 39.3817 115.806 39.4913C115.552 39.6008 115.276 39.6483 115 39.6297C114.599 39.6573 114.201 39.5419 113.877 39.3039C113.553 39.0659 113.324 38.7207 113.23 38.3297L118.17 38.3697ZM113.23 37.6097C113.321 37.2311 113.542 36.8965 113.854 36.6643C114.167 36.4322 114.551 36.3173 114.94 36.3397C115.327 36.3101 115.711 36.4228 116.02 36.6567C116.33 36.8906 116.543 37.2296 116.62 37.6097H113.23ZM119.23 35.2697V42.8797H120.75V39.9997C121.357 40.5652 122.161 40.8703 122.99 40.8497C123.388 40.883 123.789 40.8332 124.167 40.7035C124.546 40.5739 124.893 40.3672 125.187 40.0965C125.481 39.8258 125.716 39.4971 125.877 39.131C126.037 38.7649 126.12 38.3695 126.12 37.9697C126.12 37.57 126.037 37.1745 125.877 36.8085C125.716 36.4424 125.481 36.1136 125.187 35.843C124.893 35.5723 124.546 35.3656 124.167 35.2359C123.789 35.1063 123.388 35.0565 122.99 35.0897C122.153 35.0665 121.34 35.3757 120.73 35.9497L120.59 35.2497L119.23 35.2697ZM124.63 37.9797C124.63 38.8697 123.83 39.5197 122.63 39.5197C121.43 39.5197 120.71 38.8897 120.71 37.9797C120.71 37.0697 121.49 36.4497 122.63 36.4497C123.77 36.4497 124.63 37.0897 124.63 37.9797ZM128.74 38.1697C128.723 37.9564 128.75 37.7418 128.82 37.5395C128.89 37.3372 129.001 37.1515 129.146 36.9942C129.291 36.8369 129.467 36.7114 129.663 36.6255C129.859 36.5397 130.071 36.4953 130.285 36.4953C130.499 36.4953 130.711 36.5397 130.907 36.6255C131.103 36.7114 131.279 36.8369 131.424 36.9942C131.569 37.1515 131.68 37.3372 131.75 37.5395C131.82 37.7418 131.847 37.9564 131.83 38.1697V40.7097H133.35V38.1497C133.332 37.9382 133.358 37.7251 133.427 37.5242C133.496 37.3233 133.606 37.1389 133.749 36.9828C133.893 36.8267 134.068 36.7022 134.263 36.6173C134.457 36.5324 134.668 36.489 134.88 36.4897C135.094 36.4878 135.306 36.5302 135.503 36.6143C135.7 36.6984 135.877 36.8223 136.023 36.9782C136.17 37.1341 136.283 37.3187 136.354 37.5204C136.426 37.722 136.455 37.9363 136.44 38.1497V40.6897H138V38.1497C138.04 37.769 138.001 37.3841 137.885 37.0193C137.769 36.6544 137.578 36.3176 137.326 36.0301C137.073 35.7426 136.763 35.5106 136.416 35.3487C136.069 35.1869 135.693 35.0987 135.31 35.0897C134.814 35.0798 134.326 35.222 133.913 35.4974C133.5 35.7727 133.182 36.1679 133 36.6297C132.801 36.1679 132.47 35.7754 132.048 35.5013C131.626 35.2273 131.133 35.0841 130.63 35.0897C130.249 35.088 129.872 35.1779 129.533 35.3519C129.194 35.526 128.901 35.779 128.68 36.0897L128.54 35.2297H127.18V40.6697H128.7V38.1497L128.74 38.1697ZM145.49 38.3697C145.5 38.2466 145.5 38.1229 145.49 37.9997C145.477 37.5932 145.38 37.1936 145.208 36.8253C145.035 36.457 144.789 36.1276 144.485 35.8573C144.181 35.587 143.825 35.3813 143.439 35.2528C143.053 35.1243 142.645 35.0756 142.24 35.1097C141.833 35.0617 141.421 35.1004 141.03 35.2232C140.64 35.346 140.279 35.5502 139.973 35.8222C139.667 36.0943 139.422 36.4281 139.255 36.8017C139.087 37.1753 139 37.5802 139 37.9897C139 38.3993 139.087 38.8041 139.255 39.1777C139.422 39.5513 139.667 39.8851 139.973 40.1572C140.279 40.4293 140.64 40.6335 141.03 40.7563C141.421 40.8791 141.833 40.9177 142.24 40.8697C142.886 40.9185 143.53 40.7645 144.084 40.4293C144.638 40.094 145.074 39.5943 145.33 38.9997H143.78C143.606 39.2124 143.383 39.3805 143.131 39.4901C142.879 39.5996 142.604 39.6475 142.33 39.6297C141.928 39.6594 141.53 39.5448 141.205 39.3064C140.881 39.0681 140.652 38.7217 140.56 38.3297L145.49 38.3697ZM140.56 37.6097C140.647 37.2309 140.866 36.8953 141.177 36.6627C141.488 36.4301 141.872 36.3157 142.26 36.3397C142.653 36.2961 143.049 36.3997 143.37 36.6305C143.691 36.8614 143.916 37.2031 144 37.5897L140.56 37.6097ZM148.08 38.1697C148.066 37.9515 148.098 37.7327 148.174 37.5275C148.249 37.3223 148.367 37.1354 148.52 36.9789C148.673 36.8224 148.857 36.6997 149.06 36.6189C149.263 36.538 149.481 36.5009 149.7 36.5097C149.92 36.5013 150.14 36.5385 150.345 36.6189C150.55 36.6994 150.737 36.8213 150.893 36.9772C151.048 37.1331 151.17 37.3194 151.251 37.5246C151.331 37.7299 151.368 37.9495 151.36 38.1697V40.7097H152.88V38.1497C152.918 37.763 152.874 37.3726 152.752 37.0037C152.63 36.6348 152.432 36.2954 152.171 36.0073C151.911 35.7193 151.593 35.4888 151.238 35.3308C150.883 35.1728 150.499 35.0907 150.11 35.0897C149.721 35.0874 149.338 35.1767 148.99 35.3505C148.643 35.5242 148.341 35.7775 148.11 36.0897L147.95 35.1997H146.6V40.6397H148.12V38.1497L148.08 38.1697ZM156.54 36.6697H158.11V35.2697H156.54V33.9997H155.94L153.94 35.9997V36.5997H155V38.0897C155 39.7997 156.08 40.7997 158.09 40.7997V39.4397C157.09 39.4397 156.52 39.0097 156.52 38.1397V36.6497L156.54 36.6697Z" fill="white"/>
</g>
</g>
<defs>
<clipPath id="clip0_81_733">
<rect width="190.41" height="45.48" fill="white"/>
</clipPath>
</defs>
</svg>
