<svg width="191" height="47" viewBox="0 0 191 47" fill="none" xmlns="http://www.w3.org/2000/svg">
<path fill-rule="evenodd" clip-rule="evenodd" d="M7.04 0.76001H38.32V32.14L31.38 39.08H21.33V39.31L14.39 46.24H0V7.70001L6.94 0.76001H7.04Z" fill="white"/>
<path fill-rule="evenodd" clip-rule="evenodd" d="M25.9999 24.84H28.9999V14.99H19.1599V31.76L25.9999 24.84ZM25.5199 32.63H18.4699V7.37001H36.6299V25.53H26.7299V31.45H42.5499V1.45001H12.5499V38.62H25.5499V32.62L25.5199 32.63ZM11.9999 0.76001H43.2399V32.14L36.2999 39.08H26.2999V39.31L19.3599 46.24H4.91992V7.70001L11.8599 0.76001H11.9999Z" fill="#EDC653"/>
<path d="M46.74 27.84H52V20.12H60.3C65.72 20.12 70.76 16.06 70.76 10.72C70.76 5.07998 66 1.32998 60.3 1.32998H46.74V27.84ZM65.45 10.76C65.45 13.26 63.22 15.19 60.3 15.19H52V6.20998H60.3C63.26 6.20998 65.45 8.10998 65.45 10.76ZM88.52 8.33998C86.6615 8.30773 84.8326 8.80739 83.2486 9.78006C81.6647 10.7527 80.3918 12.1579 79.58 13.83L79 8.89998H74.28V27.84H79.58V22.46C79.58 17.16 82.88 13.94 88.52 13.94V8.33998ZM92.19 3.17998C92.1685 3.5169 92.2163 3.85463 92.3305 4.17234C92.4447 4.49005 92.6228 4.78098 92.8538 5.02717C93.0848 5.27336 93.3638 5.46958 93.6736 5.60372C93.9834 5.73786 94.3174 5.80707 94.655 5.80707C94.9926 5.80707 95.3266 5.73786 95.6364 5.60372C95.9462 5.46958 96.2252 5.27336 96.4562 5.02717C96.6872 4.78098 96.8653 4.49005 96.9795 4.17234C97.0936 3.85463 97.1415 3.5169 97.12 3.17998C97.0801 2.55336 96.803 1.96547 96.3451 1.53583C95.8872 1.10619 95.2829 0.867065 94.655 0.867065C94.0271 0.867065 93.4228 1.10619 92.9649 1.53583C92.507 1.96547 92.2299 2.55336 92.19 3.17998ZM97.35 27.84V8.89998H92V27.84H97.35ZM102.42 14.21H112.57L101.89 23.64V27.84H120.83V22.54H109.83L120.25 13.11V8.89998H102.42V14.21ZM130.53 19.02C130.53 15.61 132.68 13.22 135.87 13.22C139.06 13.22 141.28 15.61 141.28 19.02V27.84H146.59V19.02C146.59 15.61 148.74 13.22 151.93 13.22C155.12 13.22 157.34 15.61 157.34 19.02V27.84H162.65V19.02C162.65 12.69 158.74 8.33998 153.29 8.33998C151.603 8.35775 149.96 8.87819 148.571 9.83477C147.181 10.7914 146.109 12.1406 145.49 13.71C144.803 12.0955 143.65 10.7223 142.179 9.76589C140.707 8.80944 138.985 8.31302 137.23 8.33998C135.896 8.342 134.583 8.66686 133.403 9.28681C132.222 9.90676 131.209 10.8034 130.45 11.9L129.96 8.89998H125.22V27.84H130.53V19.02ZM190.41 27.84V8.89998H185.71L185.18 11.4C184.133 10.3868 182.894 9.5939 181.535 9.06829C180.176 8.54268 178.726 8.29502 177.27 8.33998C170.94 8.33998 166.27 12.62 166.27 18.41C166.27 24.2 171.01 28.41 177.27 28.41C178.726 28.4474 180.175 28.1954 181.533 27.6683C182.891 27.1413 184.13 26.3499 185.18 25.34L185.71 27.84H190.41ZM171.55 18.41C171.55 15.27 174.43 12.99 178.4 12.99C182.37 12.99 185.11 15.23 185.11 18.41C185.11 21.59 182.42 23.76 178.4 23.76C174.38 23.76 171.55 21.53 171.55 18.46V18.41Z" fill="#4D4D4D"/>
<path d="M79 41.45H82.6C83.6228 41.4479 84.6046 41.0481 85.338 40.3353C86.0714 39.6224 86.4989 38.6523 86.53 37.63C86.5303 37.1203 86.4279 36.6157 86.2287 36.1465C86.0296 35.6773 85.7378 35.2531 85.3709 34.8993C85.004 34.5455 84.5695 34.2693 84.0934 34.0873C83.6173 33.9053 83.1094 33.8212 82.6 33.84H79V41.45ZM85 37.63C85.0071 37.9461 84.9493 38.2604 84.8301 38.5532C84.7108 38.8461 84.5327 39.1114 84.3068 39.3326C84.0809 39.5539 83.8119 39.7264 83.5166 39.8394C83.2213 39.9525 82.9059 40.0038 82.59 39.99H80.56V35.29H82.64C82.9549 35.2734 83.2699 35.322 83.5651 35.4328C83.8604 35.5436 84.1296 35.7142 84.3559 35.9338C84.5821 36.1535 84.7606 36.4176 84.88 36.7095C84.9995 37.0013 85.0573 37.3147 85.05 37.63H85ZM93.66 39.11C93.6749 38.9871 93.6749 38.8629 93.66 38.74C93.6465 38.3334 93.5505 37.9338 93.3777 37.5655C93.205 37.1972 92.9592 36.8679 92.6552 36.5976C92.3512 36.3272 91.9954 36.1216 91.6094 35.9931C91.2234 35.8645 90.8154 35.8159 90.41 35.85C90.0033 35.802 89.591 35.8406 89.2004 35.9635C88.8097 36.0863 88.4494 36.2904 88.1433 36.5625C87.8373 36.8346 87.5923 37.1684 87.4245 37.542C87.2567 37.9156 87.17 38.3205 87.17 38.73C87.17 39.1395 87.2567 39.5444 87.4245 39.918C87.5923 40.2916 87.8373 40.6254 88.1433 40.8975C88.4494 41.1695 88.8097 41.3737 89.2004 41.4965C89.591 41.6193 90.0033 41.658 90.41 41.61C91.0619 41.6743 91.7174 41.5297 92.2818 41.1972C92.8462 40.8647 93.2903 40.3614 93.55 39.76H92C91.8226 39.9716 91.5982 40.1388 91.3447 40.2482C91.0912 40.3576 90.8156 40.4061 90.54 40.39C90.1389 40.4176 89.741 40.3022 89.4169 40.0642C89.0929 39.8261 88.8637 39.481 88.77 39.09L93.66 39.11ZM88.73 38.35C88.819 37.9704 89.0396 37.6346 89.3526 37.4021C89.6656 37.1696 90.0509 37.0555 90.44 37.08C90.8267 37.0503 91.211 37.1631 91.5204 37.397C91.8298 37.6309 92.0431 37.9698 92.12 38.35H88.73ZM94.03 36.01L96.77 41.45H98.47L101.18 36.01H99.54L97.67 39.76L95.77 36.01H94.03ZM101.4 38.76C101.415 39.1713 101.515 39.5751 101.694 39.9462C101.872 40.3173 102.125 40.6477 102.436 40.9169C102.747 41.1861 103.111 41.3883 103.504 41.511C103.897 41.6337 104.311 41.6742 104.72 41.63C106.66 41.63 108.06 40.46 108.06 38.76C108.06 37.06 106.66 35.87 104.72 35.87C104.309 35.8257 103.893 35.8668 103.499 35.9907C103.105 36.1146 102.741 36.3186 102.429 36.5899C102.117 36.8613 101.865 37.1941 101.688 37.5675C101.511 37.9409 101.413 38.3469 101.4 38.76ZM102.92 38.76C102.935 38.5418 102.994 38.329 103.093 38.1344C103.193 37.9398 103.331 37.7675 103.5 37.6281C103.668 37.4887 103.863 37.385 104.073 37.3234C104.283 37.2619 104.503 37.2437 104.72 37.27C105.81 37.27 106.54 37.89 106.54 38.76C106.54 39.63 105.81 40.22 104.72 40.22C104.505 40.2463 104.287 40.2291 104.08 40.1694C103.872 40.1096 103.678 40.0086 103.51 39.8723C103.342 39.7361 103.203 39.5673 103.102 39.3762C103 39.1851 102.939 38.9755 102.92 38.76ZM110.64 33.86H109.11V41.47H110.64V33.86ZM118.17 39.13C118.18 39.0069 118.18 38.8831 118.17 38.76C118.157 38.3534 118.06 37.9538 117.888 37.5855C117.715 37.2172 117.469 36.8879 117.165 36.6176C116.861 36.3472 116.505 36.1416 116.119 36.0131C115.733 35.8845 115.325 35.8359 114.92 35.87C114.513 35.822 114.101 35.8606 113.71 35.9835C113.32 36.1063 112.959 36.3104 112.653 36.5825C112.347 36.8546 112.102 37.1884 111.935 37.562C111.767 37.9356 111.68 38.3405 111.68 38.75C111.68 39.1595 111.767 39.5644 111.935 39.938C112.102 40.3116 112.347 40.6454 112.653 40.9175C112.959 41.1895 113.32 41.3937 113.71 41.5165C114.101 41.6393 114.513 41.678 114.92 41.63C115.565 41.6811 116.209 41.528 116.762 41.1924C117.315 40.8567 117.748 40.3556 118 39.76H116.46C116.284 39.9735 116.06 40.142 115.806 40.2515C115.552 40.3611 115.276 40.4086 115 40.39C114.599 40.4176 114.201 40.3022 113.877 40.0642C113.553 39.8261 113.324 39.481 113.23 39.09L118.17 39.13ZM113.23 38.37C113.321 37.9914 113.542 37.6567 113.854 37.4246C114.167 37.1924 114.551 37.0775 114.94 37.1C115.327 37.0703 115.711 37.1831 116.02 37.417C116.33 37.6509 116.543 37.9898 116.62 38.37H113.23ZM119.23 36.03V43.64H120.75V40.76C121.357 41.3254 122.161 41.6306 122.99 41.61C123.388 41.6432 123.789 41.5934 124.167 41.4638C124.546 41.3341 124.893 41.1274 125.187 40.8568C125.481 40.5861 125.716 40.2573 125.877 39.8912C126.037 39.5252 126.12 39.1298 126.12 38.73C126.12 38.3302 126.037 37.9348 125.877 37.5687C125.716 37.2027 125.481 36.8739 125.187 36.6032C124.893 36.3325 124.546 36.1258 124.167 35.9962C123.789 35.8665 123.388 35.8168 122.99 35.85C122.153 35.8268 121.34 36.136 120.73 36.71L120.59 36.01L119.23 36.03ZM124.63 38.74C124.63 39.63 123.83 40.28 122.63 40.28C121.43 40.28 120.71 39.65 120.71 38.74C120.71 37.83 121.49 37.21 122.63 37.21C123.77 37.21 124.63 37.85 124.63 38.74ZM128.74 38.93C128.723 38.7166 128.75 38.5021 128.82 38.2997C128.89 38.0974 129.001 37.9118 129.146 37.7545C129.291 37.5972 129.467 37.4716 129.663 37.3858C129.859 37.2999 130.071 37.2556 130.285 37.2556C130.499 37.2556 130.711 37.2999 130.907 37.3858C131.103 37.4716 131.279 37.5972 131.424 37.7545C131.569 37.9118 131.68 38.0974 131.75 38.2997C131.82 38.5021 131.847 38.7166 131.83 38.93V41.47H133.35V38.91C133.332 38.6984 133.358 38.4854 133.427 38.2845C133.496 38.0836 133.606 37.8992 133.749 37.7431C133.893 37.5869 134.068 37.4624 134.263 37.3775C134.457 37.2927 134.668 37.2492 134.88 37.25C135.094 37.2481 135.306 37.2905 135.503 37.3745C135.7 37.4586 135.877 37.5825 136.023 37.7385C136.17 37.8944 136.283 38.079 136.354 38.2806C136.426 38.4822 136.455 38.6965 136.44 38.91V41.45H138V38.91C138.04 38.5293 138.001 38.1443 137.885 37.7795C137.769 37.4147 137.578 37.0779 137.326 36.7904C137.073 36.5028 136.763 36.2708 136.416 36.109C136.069 35.9471 135.693 35.8589 135.31 35.85C134.814 35.84 134.326 35.9823 133.913 36.2576C133.5 36.5329 133.182 36.9281 133 37.39C132.801 36.9282 132.47 36.5356 132.048 36.2616C131.626 35.9876 131.133 35.8444 130.63 35.85C130.249 35.8482 129.872 35.9382 129.533 36.1122C129.194 36.2862 128.901 36.5393 128.68 36.85L128.54 35.99H127.18V41.43H128.7V38.91L128.74 38.93ZM145.49 39.13C145.5 39.0069 145.5 38.8831 145.49 38.76C145.477 38.3534 145.38 37.9538 145.208 37.5855C145.035 37.2172 144.789 36.8879 144.485 36.6176C144.181 36.3472 143.825 36.1416 143.439 36.0131C143.053 35.8845 142.645 35.8359 142.24 35.87C141.833 35.822 141.421 35.8606 141.03 35.9835C140.64 36.1063 140.279 36.3104 139.973 36.5825C139.667 36.8546 139.422 37.1884 139.255 37.562C139.087 37.9356 139 38.3405 139 38.75C139 39.1595 139.087 39.5644 139.255 39.938C139.422 40.3116 139.667 40.6454 139.973 40.9175C140.279 41.1895 140.64 41.3937 141.03 41.5165C141.421 41.6393 141.833 41.678 142.24 41.63C142.886 41.6787 143.53 41.5247 144.084 41.1895C144.638 40.8543 145.074 40.3546 145.33 39.76H143.78C143.606 39.9727 143.383 40.1407 143.131 40.2503C142.879 40.3599 142.604 40.4078 142.33 40.39C141.928 40.4197 141.53 40.305 141.205 40.0667C140.881 39.8283 140.652 39.482 140.56 39.09L145.49 39.13ZM140.56 38.37C140.647 37.9912 140.866 37.6556 141.177 37.423C141.488 37.1904 141.872 37.0759 142.26 37.1C142.653 37.0563 143.049 37.1599 143.37 37.3908C143.691 37.6216 143.916 37.9634 144 38.35L140.56 38.37ZM148.08 38.93C148.066 38.7117 148.098 38.4929 148.174 38.2878C148.249 38.0826 148.367 37.8957 148.52 37.7392C148.673 37.5826 148.857 37.46 149.06 37.3791C149.263 37.2983 149.481 37.2611 149.7 37.27C149.92 37.2616 150.14 37.2987 150.345 37.3792C150.55 37.4596 150.737 37.5816 150.893 37.7374C151.048 37.8933 151.17 38.0797 151.251 38.2849C151.331 38.4901 151.368 38.7097 151.36 38.93V41.47H152.88V38.91C152.918 38.5232 152.874 38.1329 152.752 37.764C152.63 37.395 152.432 37.0557 152.171 36.7676C151.911 36.4795 151.593 36.2491 151.238 36.0911C150.883 35.9331 150.499 35.8509 150.11 35.85C149.721 35.8476 149.338 35.937 148.99 36.1107C148.643 36.2845 148.341 36.5378 148.11 36.85L147.95 35.96H146.6V41.4H148.12V38.91L148.08 38.93ZM156.54 37.43H158.11V36.03H156.54V34.76H155.94L153.94 36.76V37.36H155V38.85C155 40.56 156.08 41.56 158.09 41.56V40.2C157.09 40.2 156.52 39.77 156.52 38.9V37.41L156.54 37.43Z" fill="#4D4D4D"/>
</svg>
