<svg width="60" height="60" viewBox="0 0 60 60" fill="none" xmlns="http://www.w3.org/2000/svg">
<rect x="0.5" y="0.5" width="59" height="59" rx="29.5" stroke="#8E8E8E" stroke-opacity="0.2"/>
<path d="M42.2967 23.4898C42.1581 22.9361 41.8758 22.4288 41.4784 22.0191C41.081 21.6095 40.5826 21.3119 40.0333 21.1565C38.0267 20.6665 30 20.6665 30 20.6665C30 20.6665 21.9733 20.6665 19.9667 21.2032C19.4175 21.3586 18.919 21.6561 18.5216 22.0658C18.1242 22.4755 17.8419 22.9828 17.7033 23.5365C17.3361 25.573 17.1565 27.6389 17.1667 29.7082C17.1536 31.7931 17.3332 33.8747 17.7033 35.9265C17.8561 36.463 18.1447 36.951 18.5412 37.3434C18.9377 37.7358 19.4286 38.0193 19.9667 38.1665C21.9733 38.7032 30 38.7032 30 38.7032C30 38.7032 38.0267 38.7032 40.0333 38.1665C40.5826 38.0111 41.081 37.7136 41.4784 37.3039C41.8758 36.8942 42.1581 36.3869 42.2967 35.8332C42.6611 33.812 42.8407 31.7619 42.8333 29.7082C42.8464 27.6233 42.6668 25.5417 42.2967 23.4898Z" fill="#EDC653"/>
<path d="M27.375 33.5236L34.0833 29.7086L27.375 25.8936V33.5236Z" fill="white"/>
</svg>
