<svg width="60" height="60" viewBox="0 0 60 60" fill="none" xmlns="http://www.w3.org/2000/svg">
<rect x="0.5" y="0.5" width="59" height="59" rx="29.5" stroke="#8E8E8E" stroke-opacity="0.2"/>
<path d="M35 20H25C22.2386 20 20 22.2386 20 25V35C20 37.7614 22.2386 40 25 40H35C37.7614 40 40 37.7614 40 35V25C40 22.2386 37.7614 20 35 20Z" fill="#EDC653" stroke="#EDC653" stroke-width="2" stroke-linecap="round" stroke-linejoin="round"/>
<path d="M34 29.3698C34.1234 30.2021 33.9812 31.052 33.5937 31.7988C33.2062 32.5456 32.5931 33.1512 31.8416 33.5295C31.0901 33.9077 30.2384 34.0394 29.4077 33.9057C28.5771 33.7721 27.8097 33.3799 27.2148 32.785C26.6199 32.1901 26.2277 31.4227 26.094 30.592C25.9604 29.7614 26.092 28.9097 26.4703 28.1582C26.8485 27.4067 27.4541 26.7936 28.2009 26.4061C28.9477 26.0186 29.7977 25.8764 30.63 25.9998C31.4789 26.1257 32.2648 26.5213 32.8716 27.1281C33.4785 27.735 33.8741 28.5209 34 29.3698Z" fill="#EDC653" stroke="white" stroke-width="2" stroke-linecap="round" stroke-linejoin="round"/>
<path d="M35.5 24.5H35.5113" stroke="white" stroke-width="2" stroke-linecap="round" stroke-linejoin="round"/>
</svg>
